<svg width="200" height="29" viewBox="0 0 200 29" fill="none" xmlns="http://www.w3.org/2000/svg">
<path fill-rule="evenodd" clip-rule="evenodd" d="M15.4706 28.1148C14.9805 28.9185 14.4511 28.9578 13.8434 28.2324C10.9616 24.7625 11.138 21.2533 14.3531 17.705C14.3923 17.6657 14.4511 17.6265 14.4903 17.6069C14.5492 17.6069 14.5884 17.6069 14.6472 17.6069C14.706 17.6265 14.7452 17.6461 14.7844 17.6854C17.6858 20.6848 17.9015 24.1547 15.4706 28.1148Z" fill="#59C257"/>
<path fill-rule="evenodd" clip-rule="evenodd" d="M15.2555 0.414172C17.902 3.94292 17.8236 7.43247 14.981 10.8828C14.9418 10.9416 14.9026 10.9808 14.8438 11.0004C14.7654 11.0592 14.6673 11.0788 14.5889 11.0788C14.4909 11.0788 14.3929 11.0592 14.3145 11.0004C14.2752 10.9808 14.236 10.9416 14.1968 10.9024C11.0994 7.5893 11.0406 4.08015 14.0008 0.394568C14.4321 -0.134745 14.8438 -0.134745 15.2555 0.414172Z" fill="#59C257"/>
<path fill-rule="evenodd" clip-rule="evenodd" d="M4.06121 4.55075C4.0416 4.21748 4.19844 4.06064 4.5121 4.08025C9.33473 4.3351 11.9421 6.90325 12.3146 11.8043C12.3342 12.118 12.1773 12.2748 11.8833 12.2748C7.39392 12.1572 4.53171 9.13813 4.06121 4.55075Z" fill="#59C257"/>
<path fill-rule="evenodd" clip-rule="evenodd" d="M0.1795 14.1569C3.74746 10.8046 7.80553 11.1378 11.1971 14.1961C11.4127 14.3921 11.3931 14.5882 11.1774 14.7646C7.64869 17.7837 3.98271 17.8033 0.218709 14.843C-0.0557498 14.6274 -0.075354 14.3921 0.1795 14.1569Z" fill="#59C257"/>
<path fill-rule="evenodd" clip-rule="evenodd" d="M28.86 14.1761C29.1148 14.3917 29.0952 14.6074 28.86 14.823C25.3312 17.7833 21.6849 17.7833 17.9209 14.823C17.6856 14.627 17.666 14.4113 17.8816 14.1957C21.1359 10.9022 25.3116 11.0198 28.86 14.1761Z" fill="#59C257"/>
<path fill-rule="evenodd" clip-rule="evenodd" d="M4.68809 24.7432C4.31561 24.7628 4.15878 24.606 4.17838 24.2531C4.47245 19.5285 7.02099 16.9995 11.7848 16.6467C12.1181 16.627 12.3141 16.7839 12.3141 17.1172C12.5494 21.5085 8.88339 24.4491 4.68809 24.7432Z" fill="#59C257"/>
<path fill-rule="evenodd" clip-rule="evenodd" d="M16.6466 17.0582C16.627 17.0582 16.627 17.0386 16.627 17.019C16.627 16.9602 16.6466 16.8817 16.6858 16.8229C16.725 16.7641 16.7642 16.7249 16.823 16.6857C16.8818 16.6465 16.9602 16.6465 17.019 16.6465C17.0386 16.6465 17.0386 16.6465 17.0386 16.6465C21.8809 16.8229 24.4686 19.3911 24.8215 24.3509C24.8411 24.6646 24.6843 24.8214 24.3706 24.8018C19.8812 24.5666 16.9994 21.7436 16.6466 17.0582Z" fill="#59C257"/>
<path fill-rule="evenodd" clip-rule="evenodd" d="M17.0391 12.0395C16.9215 11.8434 17.0195 10.628 17.2155 9.72617C17.588 7.90298 18.529 6.35425 19.9013 5.31523C20.7835 4.64869 22.0578 4.09977 23.3713 3.78611C23.9006 3.66848 24.1358 3.66848 24.3123 3.80571C24.5475 4.00175 24.5671 4.19779 24.5083 5.04077C24.4103 6.5699 24.0574 7.80496 23.4497 8.9224C23.2732 9.23607 23.1752 9.3733 22.7243 9.90261C22.2734 10.4123 22.1558 10.5299 21.8813 10.7456C20.7835 11.569 19.4308 12.0787 17.8233 12.2943C17.3332 12.3531 17.1567 12.2943 17.0391 12.0395Z" fill="white"/>
<path fill-rule="evenodd" clip-rule="evenodd" d="M100.836 20.0606C101.422 20.0606 101.931 19.9614 102.362 19.7631C102.793 19.5562 103.164 19.2889 103.474 18.9613C103.793 18.6337 104.056 18.263 104.263 17.8491C104.47 17.4353 104.643 17.0172 104.78 16.5947L107.496 17.8491C107.281 18.5044 106.996 19.1467 106.643 19.7761C106.289 20.4054 105.845 20.9615 105.311 21.4443C104.785 21.9271 104.155 22.3194 103.423 22.6211C102.69 22.9143 101.828 23.0608 100.836 23.0608C99.5429 23.0608 98.4221 22.8281 97.4738 22.3625C96.534 21.8883 95.7538 21.2331 95.133 20.3968C94.5123 19.5519 94.051 18.5518 93.7493 17.3965C93.4561 16.2412 93.3096 14.9782 93.3096 13.6074C93.3096 12.1848 93.4561 10.9002 93.7493 9.75356C94.051 8.6069 94.5036 7.63267 95.1072 6.83087C95.7193 6.02045 96.4909 5.3997 97.422 4.96863C98.3531 4.52893 99.4481 4.30908 100.707 4.30908C101.681 4.30908 102.535 4.43409 103.267 4.68412C104 4.93414 104.63 5.28762 105.156 5.74456C105.69 6.19288 106.13 6.72741 106.475 7.34816C106.828 7.96029 107.104 8.63708 107.302 9.37852L104.548 10.2967C104.453 9.90875 104.302 9.53802 104.095 9.18454C103.888 8.82244 103.625 8.50344 103.306 8.22755C102.996 7.95167 102.629 7.73182 102.207 7.56801C101.785 7.39558 101.306 7.30936 100.771 7.30936C100.013 7.30936 99.3619 7.46024 98.8187 7.76199C98.2756 8.05512 97.8272 8.47758 97.4738 9.02935C97.1289 9.58113 96.8703 10.245 96.6978 11.0209C96.534 11.7882 96.4521 12.6504 96.4521 13.6074C96.4521 14.5557 96.534 15.4265 96.6978 16.2197C96.8703 17.0042 97.1332 17.681 97.4867 18.25C97.8402 18.8191 98.2928 19.2631 98.8446 19.5821C99.3964 19.9011 100.06 20.0606 100.836 20.0606Z" fill="white"/>
<path fill-rule="evenodd" clip-rule="evenodd" d="M109.539 22.8021V4.58057H121.294V7.52912H112.669V12.1071H120.648V15.0557H112.669V19.8536H121.721V22.8021H109.539Z" fill="white"/>
<path fill-rule="evenodd" clip-rule="evenodd" d="M136.322 10.3484C136.322 11.1329 136.214 11.8916 135.999 12.6244C135.783 13.3486 135.451 13.9909 135.003 14.5513C134.555 15.1117 133.986 15.56 133.296 15.8963C132.615 16.2239 131.804 16.3877 130.865 16.3877H127.153V22.8021H124.023V4.58057H130.735C131.692 4.58057 132.52 4.72282 133.218 5.00733C133.917 5.28322 134.494 5.6755 134.951 6.18417C135.417 6.69283 135.762 7.30065 135.986 8.00761C136.21 8.71458 136.322 9.49482 136.322 10.3484ZM133.167 10.413C133.167 9.47327 132.934 8.76199 132.468 8.27919C132.011 7.78777 131.317 7.54205 130.386 7.54205H127.153V13.4521H130.477C130.942 13.4521 131.343 13.3788 131.679 13.2322C132.016 13.0857 132.291 12.8788 132.507 12.6115C132.731 12.3442 132.895 12.0252 132.998 11.6545C133.111 11.2752 133.167 10.8613 133.167 10.413Z" fill="white"/>
<path fill-rule="evenodd" clip-rule="evenodd" d="M151.75 17.6033C151.75 18.5258 151.595 19.319 151.285 19.9829C150.983 20.6381 150.569 21.177 150.043 21.5994C149.517 22.0132 148.905 22.3193 148.207 22.5176C147.509 22.7073 146.767 22.8021 145.983 22.8021H138.508V4.58057H145.349C146.228 4.58057 147.013 4.6754 147.703 4.86508C148.392 5.04613 148.974 5.32633 149.448 5.70567C149.923 6.08502 150.28 6.56351 150.522 7.14115C150.763 7.71017 150.884 8.38265 150.884 9.15858C150.884 10.1932 150.647 11.0682 150.173 11.7838C149.707 12.4908 148.996 12.9693 148.039 13.2193C149.246 13.3917 150.164 13.8573 150.793 14.616C151.431 15.3661 151.75 16.3618 151.75 17.6033ZM147.741 9.67587C147.741 8.85683 147.526 8.27488 147.095 7.93002C146.672 7.58516 146.039 7.41273 145.194 7.41273H141.637V11.9261H145.22C146.099 11.9261 146.737 11.7407 147.134 11.37C147.539 10.9907 147.741 10.4259 147.741 9.67587ZM148.608 17.3059C148.608 16.8231 148.53 16.4179 148.375 16.0903C148.22 15.7627 148.004 15.4997 147.729 15.3014C147.461 15.1031 147.147 14.9609 146.784 14.8746C146.422 14.7884 146.026 14.7453 145.595 14.7453H141.637V19.9699H145.724C146.138 19.9699 146.517 19.9311 146.862 19.8536C147.216 19.7673 147.522 19.6251 147.78 19.4268C148.039 19.2199 148.241 18.944 148.388 18.5991C148.535 18.2543 148.608 17.8232 148.608 17.3059Z" fill="white"/>
<path fill-rule="evenodd" clip-rule="evenodd" d="M154.182 22.8021V4.58057H165.937V7.52912H157.311V12.1071H165.29V15.0557H157.311V19.8536H166.364V22.8021H154.182Z" fill="white"/>
<path fill-rule="evenodd" clip-rule="evenodd" d="M180.965 10.3484C180.965 11.1329 180.857 11.8916 180.641 12.6244C180.426 13.3486 180.094 13.9909 179.645 14.5513C179.197 15.1117 178.628 15.56 177.938 15.8963C177.257 16.2239 176.447 16.3877 175.507 16.3877H171.796V22.8021H168.666V4.58057H175.378C176.335 4.58057 177.162 4.72282 177.861 5.00733C178.559 5.28322 179.137 5.6755 179.594 6.18417C180.059 6.69283 180.404 7.30065 180.628 8.00761C180.852 8.71458 180.965 9.49482 180.965 10.3484ZM177.809 10.413C177.809 9.47327 177.576 8.76199 177.111 8.27919C176.654 7.78777 175.96 7.54205 175.029 7.54205H171.796V13.4521H175.119C175.585 13.4521 175.986 13.3788 176.322 13.2322C176.658 13.0857 176.934 12.8788 177.15 12.6115C177.374 12.3442 177.538 12.0252 177.641 11.6545C177.753 11.2752 177.809 10.8613 177.809 10.413Z" fill="white"/>
<path fill-rule="evenodd" clip-rule="evenodd" d="M44.4052 22.7235L43.0861 18.0679H37.396L36.0769 22.7235H32.9473L38.3917 4.50195H42.0774L47.509 22.7235H44.4052ZM40.9135 9.95936C40.9135 9.95936 40.8273 9.6533 40.6549 9.04117C40.5773 8.73942 40.5083 8.46353 40.448 8.21351L40.2928 7.57983C40.2583 7.41602 40.2411 7.32549 40.2411 7.30825C40.2324 7.33412 40.2109 7.42895 40.1764 7.59276C40.1419 7.75657 40.0945 7.96349 40.0341 8.21351C39.9738 8.46353 39.9048 8.73942 39.8272 9.04117L39.5686 9.95936L38.0943 15.1969H42.3878L40.9135 9.95936Z" fill="white"/>
<path fill-rule="evenodd" clip-rule="evenodd" d="M60.6872 4.50195V7.45051H52.9408V22.7106H49.6172V4.50195H60.6872Z" fill="white"/>
<path fill-rule="evenodd" clip-rule="evenodd" d="M74.8865 10.2697C74.8865 11.0543 74.7787 11.813 74.5632 12.5458C74.3476 13.27 74.0157 13.9123 73.5674 14.4727C73.1191 15.0331 72.55 15.4814 71.8603 15.8177C71.1792 16.1453 70.3688 16.3091 69.4291 16.3091H65.7175V22.7235H62.5879V4.50195H69.2997C70.2567 4.50195 71.0844 4.64421 71.7827 4.92872C72.4811 5.20461 73.0587 5.59688 73.5156 6.10555C73.9812 6.61422 74.3261 7.22204 74.5502 7.929C74.7744 8.63596 74.8865 9.41621 74.8865 10.2697ZM71.731 10.3344C71.731 9.39466 71.4982 8.68338 71.0327 8.20058C70.5757 7.70915 69.8817 7.46344 68.9506 7.46344H65.7175V13.3735H69.0411C69.5066 13.3735 69.9075 13.3002 70.2438 13.1536C70.58 13.0071 70.8559 12.8001 71.0714 12.5329C71.2956 12.2656 71.4594 11.9466 71.5629 11.5759C71.675 11.1965 71.731 10.7827 71.731 10.3344Z" fill="white"/>
<path fill-rule="evenodd" clip-rule="evenodd" d="M91.2589 13.5288C91.2589 14.9513 91.0865 16.2445 90.7416 17.4084C90.3968 18.5723 89.8967 19.5681 89.2415 20.3958C88.5949 21.2234 87.8017 21.8614 86.862 22.3098C85.9308 22.7581 84.8747 22.9822 83.6936 22.9822C82.4434 22.9822 81.3485 22.7495 80.4088 22.2839C79.469 21.8097 78.6845 21.1545 78.0551 20.3182C77.4257 19.4733 76.9515 18.4732 76.6325 17.3179C76.3222 16.1626 76.167 14.8996 76.167 13.5288C76.167 12.1062 76.3308 10.8216 76.6584 9.67495C76.986 8.52829 77.4688 7.55406 78.1068 6.75226C78.7534 5.94184 79.5423 5.32109 80.4734 4.89001C81.4132 4.45032 82.4909 4.23047 83.7065 4.23047C84.9221 4.23047 85.9998 4.45032 86.9396 4.89001C87.8793 5.32971 88.6682 5.95477 89.3062 6.76519C89.9442 7.57561 90.427 8.55415 90.7546 9.70081C91.0908 10.8388 91.2589 12.1148 91.2589 13.5288ZM88.0647 13.5288C88.0647 12.5718 87.9698 11.7096 87.7802 10.9423C87.5991 10.1664 87.3232 9.50252 86.9525 8.95074C86.5904 8.39896 86.1378 7.97651 85.5946 7.68338C85.0515 7.38163 84.4221 7.23075 83.7065 7.23075C82.9737 7.23075 82.3357 7.38163 81.7925 7.68338C81.2494 7.97651 80.7924 8.39896 80.4217 8.95074C80.051 9.50252 79.7751 10.1664 79.594 10.9423C79.413 11.7096 79.3225 12.5718 79.3225 13.5288C79.3225 14.4771 79.413 15.3479 79.594 16.1411C79.7837 16.9256 80.0596 17.6024 80.4217 18.1714C80.7924 18.7405 81.2494 19.1845 81.7925 19.5035C82.3443 19.8225 82.978 19.9819 83.6936 19.9819C84.4609 19.9819 85.1161 19.8225 85.6593 19.5035C86.211 19.1758 86.6637 18.7275 87.0172 18.1585C87.3793 17.5809 87.6422 16.8998 87.806 16.1152C87.9784 15.322 88.0647 14.4599 88.0647 13.5288Z" fill="white"/>
<path fill-rule="evenodd" clip-rule="evenodd" d="M179.048 19.874H181.681V22.7043H179.048V19.874Z" fill="white"/>
<path fill-rule="evenodd" clip-rule="evenodd" d="M190.551 16.7439C190.322 16.6367 190.093 16.5587 189.864 16.5099C189.64 16.4563 189.413 16.4295 189.184 16.4295C188.511 16.4295 187.992 16.6464 187.626 17.0803C187.265 17.5094 187.085 18.1261 187.085 18.9306V22.7042H184.467V14.5134H187.085V15.859C187.421 15.3227 187.807 14.9327 188.24 14.6889C188.679 14.4402 189.203 14.3159 189.813 14.3159C189.901 14.3159 189.996 14.3208 190.098 14.3305C190.2 14.3354 190.349 14.35 190.544 14.3744L190.551 16.7439Z" fill="white"/>
<path fill-rule="evenodd" clip-rule="evenodd" d="M191.766 19.5155V14.5132H194.398V15.3323C194.398 15.7759 194.396 16.3342 194.391 17.007C194.386 17.675 194.384 18.1211 194.384 18.3453C194.384 19.0035 194.401 19.4789 194.435 19.7714C194.469 20.0591 194.528 20.2687 194.61 20.4004C194.718 20.571 194.857 20.7027 195.027 20.7953C195.203 20.8879 195.403 20.9342 195.627 20.9342C196.173 20.9342 196.602 20.7246 196.914 20.3053C197.226 19.886 197.382 19.3034 197.382 18.5574V14.5132H200V22.7041H197.382V21.5193C196.987 21.9971 196.568 22.3506 196.124 22.5797C195.686 22.804 195.2 22.9161 194.669 22.9161C193.723 22.9161 193.002 22.626 192.504 22.0459C192.012 21.4657 191.766 20.6222 191.766 19.5155Z" fill="white"/>
</svg>
