<svg width="88" height="13" viewBox="0 0 88 13" fill="none" xmlns="http://www.w3.org/2000/svg">
<g clip-path="url(#clip0_7942_14487)">
<path d="M37.1008 3.82557C36.0976 3.82557 35.2 4.11984 34.4432 4.60453V0.0865513H32.3136V8.41278C32.3136 10.9401 34.4608 12.9827 37.0832 12.9827C39.7056 12.9827 41.888 10.9574 41.888 8.39547C41.888 5.83356 39.776 3.82557 37.1008 3.82557ZM26.0832 3.96405C23.7248 4.18908 21.7888 6.14514 21.7888 8.48202C21.7888 10.9401 23.9888 13.0173 26.5584 13.0173C29.128 13.0173 31.328 10.9574 31.328 8.48202C31.328 7.4261 30.9408 6.47404 30.2896 5.71238L25.5904 0.103862H22.8448L26.0832 3.96405ZM9.6624 9.00133L7.7088 4.15446H6.2128L4.2768 9.00133L2.3232 4.15446H0L3.4144 12.7057H4.9104L6.9696 7.61651L9.0288 12.7057H10.5248L13.9216 4.15446H11.616L9.6624 9.00133ZM47.6608 3.84288C45.0032 3.84288 42.856 5.81625 42.856 8.32623C42.856 10.8189 44.7392 13.0173 47.5376 13.0173C49.2096 13.0173 50.5648 12.2383 51.5328 10.9228L49.8784 9.6245C49.4032 10.4554 48.4704 10.9401 47.5552 10.9401C46.3584 10.9401 45.1792 10.1265 45.0912 8.93209H52.0432V8.30892C52.0256 5.67776 50.2128 3.84288 47.6608 3.84288ZM74.7648 3.84288C72.1072 3.84288 69.9776 5.81625 69.9776 8.43009C69.9776 10.8882 71.8608 13 74.6416 13C76.3136 13 77.6688 12.221 78.6368 10.9055L77.176 9.71105C76.6656 10.4727 75.7328 10.9228 74.6064 10.9228C73.4976 10.9228 72.2832 10.1092 72.1952 8.91478H79.112V8.20506C79.112 5.67776 77.3168 3.84288 74.7648 3.84288ZM82.192 6.64714C82.192 6.11052 82.9488 5.69507 83.9344 5.69507C84.92 5.69507 86.0112 6.16245 86.7152 6.9241L88 5.41811C86.768 4.37949 85.536 3.84288 83.9872 3.84288C82.0512 3.84288 80.0624 4.69108 80.0624 6.64714C80.0624 9.05326 82.2272 9.22637 83.9872 9.36485C84.9728 9.43409 85.8528 9.50333 85.8528 10.1265C85.8528 10.8016 84.8496 11.1132 83.9872 11.1132C82.8608 11.1132 81.7872 10.6112 81.0656 9.76298L79.6928 11.1651C80.784 12.4461 82.368 13 83.9168 13C85.8528 13 87.9824 12.1172 87.9824 10.0919C87.9824 7.80692 85.8 7.58189 84.128 7.4261C83.0544 7.30493 82.192 7.21838 82.192 6.64714ZM55.2464 6.09321V4.15446H53.1168V12.6884H55.2464V9.07057C55.528 7.06258 57.2 6.249 59.136 6.249V4.15446H58.9248C57.288 4.15446 56.0912 4.7257 55.2464 6.09321ZM61.9872 6.09321V4.15446H59.8576V12.6884H61.9872V9.07057C62.2688 6.80293 64.3104 6.249 65.8768 6.249V4.15446H65.648C64.0288 4.15446 62.832 4.70839 61.9872 6.09321ZM18.5856 12.6884H20.7152V0.103862H18.5856V12.6884ZM26.5584 10.9574C25.0976 10.9574 23.9008 9.83222 23.9008 8.43009C23.9008 7.02796 25.08 5.88549 26.5408 5.88549C27.984 5.88549 29.216 7.01065 29.216 8.43009C29.216 9.84953 28.0368 10.9574 26.5584 10.9574ZM37.1008 10.9574C35.6576 10.9574 34.4432 9.84953 34.4432 8.41278C34.4432 6.97603 35.5872 5.88549 37.1008 5.88549C38.6144 5.88549 39.776 7.01065 39.776 8.41278C39.776 9.81491 38.5616 10.9574 37.1008 10.9574ZM14.9072 12.6884H17.0368V4.15446H14.9072V12.6884ZM66.7744 12.6884H68.904V4.15446H66.7744V12.6884ZM15.9456 0C15.0832 0 14.3616 0.69241 14.3616 1.55792C14.3616 2.44075 15.1184 3.0466 15.9456 3.0466C16.8608 3.0466 17.5648 2.30226 17.5648 1.5233C17.5648 0.727031 16.8256 0 15.9456 0ZM67.8304 0C66.968 0 66.2288 0.69241 66.2288 1.55792C66.2288 2.42344 66.9328 3.0466 67.8656 3.0466C68.7984 3.0466 69.432 2.44075 69.432 1.59254C69.432 0.744341 68.7104 0 67.8304 0ZM72.4416 7.21838C72.7936 6.37017 73.5504 5.88549 74.6592 5.88549C75.768 5.88549 76.4544 6.40479 76.736 7.21838H72.4416ZM45.32 7.21838C45.672 6.37017 46.4288 5.88549 47.52 5.88549C48.6288 5.88549 49.3504 6.40479 49.632 7.21838C49.6496 7.21838 45.32 7.21838 45.32 7.21838Z" fill="#E313BF"/>
</g>
<defs>
<clipPath id="clip0_7942_14487">
<rect width="88" height="13" fill="white"/>
</clipPath>
</defs>
</svg>
