<svg width="79" height="18" viewBox="0 0 79 18" fill="none" xmlns="http://www.w3.org/2000/svg">
<path d="M9.2011 13.7123C11.2437 13.4423 12.8937 11.7221 13.1544 9.59094C13.2453 8.86356 13.1748 8.12411 12.9483 7.42965C12.7217 6.73518 12.3451 6.10426 11.8476 5.58557C11.35 5.06688 10.7448 4.67428 10.0787 4.43807C9.41253 4.20186 8.70323 4.12835 8.00551 4.22321C5.96129 4.49491 4.31124 6.21509 4.05225 8.34453C3.96126 9.07191 4.03177 9.81136 4.25835 10.5058C4.48493 11.2003 4.86152 11.8312 5.35906 12.3499C5.8566 12.8686 6.46179 13.2612 7.12794 13.4974C7.79409 13.7336 8.50338 13.8071 9.2011 13.7123ZM9.47964 0.0458491C11.4462 0.261671 13.282 1.17475 14.6803 2.63243C16.0785 4.09011 16.9543 6.00401 17.1614 8.05415C17.7005 13.7258 13.1658 18.4534 7.72372 17.8913C5.75748 17.6751 3.92199 16.7619 2.52409 15.3042C1.12618 13.8466 0.250569 11.9329 0.0436145 9.88302C-0.49554 4.21132 4.03922 -0.516226 9.47964 0.0458491ZM21.7776 0.400755H34.3703C34.8492 0.400755 35.1196 0.971321 34.8313 1.36868L26.1185 13.3523H32.9451C34.1895 13.3523 35.1685 14.5325 34.9111 15.8774C34.7222 16.864 33.8344 17.5364 32.8702 17.5364H19.1942C18.7202 17.5364 18.4514 16.9709 18.7365 16.5787L27.4558 4.58491H21.8525C20.8882 4.58491 20.0005 3.91075 19.8115 2.92585C19.5525 1.58094 20.5331 0.400755 21.7776 0.400755ZM76.4277 0.448302C77.7275 0.163019 78.871 1.18868 78.871 2.49283V16.9319C78.871 17.4362 78.3123 17.7164 77.9344 17.404L67.0714 8.41925V15.4477C67.0714 16.7519 65.928 17.7775 64.6282 17.4923C63.6964 17.2885 63.0579 16.3834 63.0579 15.3917V1.00358C63.0579 0.499245 63.6166 0.219057 63.9945 0.531509L74.8591 9.51623V2.54887C74.8591 1.55717 75.4992 0.653774 76.4293 0.448302H76.4277ZM48.1424 0C54.7931 0 60.1846 4.01434 60.1846 8.96604C60.1846 13.9177 54.7931 17.9321 48.1424 17.9321C41.4917 17.9321 36.1002 13.9177 36.1002 8.96604C36.1002 4.01434 41.4917 0 48.1424 0ZM48.1424 4.18415C43.5474 4.18415 40.1137 6.70925 40.1137 8.96604C40.1137 11.2228 43.5474 13.7479 48.1424 13.7479C52.7374 13.7479 56.1711 11.2245 56.1711 8.96604C56.1711 6.70755 52.7374 4.18415 48.1424 4.18415Z" fill="#005BFF"/>
</svg>
