<svg width="46" height="64" viewBox="0 0 46 64" fill="none" xmlns="http://www.w3.org/2000/svg">
<path d="M41.8827 59.2902H32.3627L29.8727 46.9702H27.5127" stroke="white" stroke-width="2" stroke-miterlimit="10" stroke-linecap="round" stroke-linejoin="round"/>
<path d="M44.613 49.75L42.583 55.34" stroke="white" stroke-width="2" stroke-miterlimit="10" stroke-linecap="round" stroke-linejoin="round"/>
<path d="M30.4326 49.75H44.6126" stroke="white" stroke-width="2" stroke-miterlimit="10" stroke-linecap="round" stroke-linejoin="round"/>
<path d="M42.5825 55.3403H31.5625" stroke="white" stroke-width="2" stroke-miterlimit="10" stroke-linecap="round" stroke-linejoin="round"/>
<path d="M34.5832 63.8201C35.3232 63.8201 35.9232 63.2202 35.9232 62.4801C35.9232 61.7401 35.3232 61.1401 34.5832 61.1401C33.8431 61.1401 33.2432 61.7401 33.2432 62.4801C33.2432 63.2202 33.8431 63.8201 34.5832 63.8201Z" fill="white"/>
<path d="M40.3127 63.8201C41.0527 63.8201 41.6527 63.2202 41.6527 62.4801C41.6527 61.7401 41.0527 61.1401 40.3127 61.1401C39.5726 61.1401 38.9727 61.7401 38.9727 62.4801C38.9727 63.2202 39.5726 63.8201 40.3127 63.8201Z" fill="white"/>
<path d="M13.2131 38.1301H4.39313C4.15313 38.1301 3.95312 37.9301 3.95312 37.6901V37.0801C3.95312 36.8401 4.15313 36.6401 4.39313 36.6401H13.2131C13.4531 36.6401 13.6531 36.8401 13.6531 37.0801V37.6901C13.6631 37.9301 13.4631 38.1301 13.2131 38.1301Z" fill="#FEFEFE"/>
<path d="M13.2131 40.9299H4.39313C4.15313 40.9299 3.95312 40.7299 3.95312 40.4899V39.8799C3.95312 39.6399 4.15313 39.4399 4.39313 39.4399H13.2131C13.4531 39.4399 13.6531 39.6399 13.6531 39.8799V40.4899C13.6631 40.7299 13.4631 40.9299 13.2131 40.9299Z" fill="#F7941D"/>
<path d="M13.2131 43.7302H4.39313C4.15313 43.7302 3.95312 43.5302 3.95312 43.2902V42.6802C3.95312 42.4402 4.15313 42.2402 4.39313 42.2402H13.2131C13.4531 42.2402 13.6531 42.4402 13.6531 42.6802V43.2902C13.6631 43.5302 13.4631 43.7302 13.2131 43.7302Z" fill="#FEFEFE"/>
<path d="M9.3223 46.53H4.3023C4.0623 46.53 3.8623 46.33 3.8623 46.09V45.48C3.8623 45.24 4.0623 45.04 4.3023 45.04H9.3323C9.5723 45.04 9.77231 45.24 9.77231 45.48V46.09C9.77231 46.33 9.5723 46.53 9.3223 46.53Z" fill="#F7941D"/>
<path d="M8.80254 35.0201C11.5363 35.0201 13.7525 32.8039 13.7525 30.0701C13.7525 27.3363 11.5363 25.1201 8.80254 25.1201C6.06873 25.1201 3.85254 27.3363 3.85254 30.0701C3.85254 32.8039 6.06873 35.0201 8.80254 35.0201Z" fill="#FEFEFE"/>
<path d="M25.7629 38.1301H16.9429C16.7029 38.1301 16.5029 37.9301 16.5029 37.6901V37.0801C16.5029 36.8401 16.7029 36.6401 16.9429 36.6401H25.7629C26.0029 36.6401 26.2029 36.8401 26.2029 37.0801V37.6901C26.2029 37.9301 26.0029 38.1301 25.7629 38.1301Z" fill="#FEFEFE"/>
<path d="M25.7629 40.9299H16.9429C16.7029 40.9299 16.5029 40.7299 16.5029 40.4899V39.8799C16.5029 39.6399 16.7029 39.4399 16.9429 39.4399H25.7629C26.0029 39.4399 26.2029 39.6399 26.2029 39.8799V40.4899C26.2029 40.7299 26.0029 40.9299 25.7629 40.9299Z" fill="#F7941D"/>
<path d="M25.7629 43.7302H16.9429C16.7029 43.7302 16.5029 43.5302 16.5029 43.2902V42.6802C16.5029 42.4402 16.7029 42.2402 16.9429 42.2402H25.7629C26.0029 42.2402 26.2029 42.4402 26.2029 42.6802V43.2902C26.2029 43.5302 26.0029 43.7302 25.7629 43.7302Z" fill="#FEFEFE"/>
<path d="M21.8723 46.53H16.8423C16.6023 46.53 16.4023 46.33 16.4023 46.09V45.48C16.4023 45.24 16.6023 45.04 16.8423 45.04H21.8723C22.1123 45.04 22.3123 45.24 22.3123 45.48V46.09C22.3123 46.33 22.1123 46.53 21.8723 46.53Z" fill="#F7941D"/>
<path d="M21.3523 35.0201C24.0862 35.0201 26.3023 32.8039 26.3023 30.0701C26.3023 27.3363 24.0862 25.1201 21.3523 25.1201C18.6185 25.1201 16.4023 27.3363 16.4023 30.0701C16.4023 32.8039 18.6185 35.0201 21.3523 35.0201Z" fill="#FEFEFE"/>
<path d="M38.303 38.1301H29.483C29.243 38.1301 29.043 37.9301 29.043 37.6901V37.0801C29.043 36.8401 29.243 36.6401 29.483 36.6401H38.303C38.543 36.6401 38.743 36.8401 38.743 37.0801V37.6901C38.753 37.9301 38.553 38.1301 38.303 38.1301Z" fill="#FEFEFE"/>
<path d="M38.303 40.9299H29.483C29.243 40.9299 29.043 40.7299 29.043 40.4899V39.8799C29.043 39.6399 29.243 39.4399 29.483 39.4399H38.303C38.543 39.4399 38.743 39.6399 38.743 39.8799V40.4899C38.753 40.7299 38.553 40.9299 38.303 40.9299Z" fill="#F7941D"/>
<path d="M38.303 43.7302H29.483C29.243 43.7302 29.043 43.5302 29.043 43.2902V42.6802C29.043 42.4402 29.243 42.2402 29.483 42.2402H38.303C38.543 42.2402 38.743 42.4402 38.743 42.6802V43.2902C38.753 43.5302 38.553 43.7302 38.303 43.7302Z" fill="#FEFEFE"/>
<path d="M33.8924 35.0201C36.6262 35.0201 38.8424 32.8039 38.8424 30.0701C38.8424 27.3363 36.6262 25.1201 33.8924 25.1201C31.1586 25.1201 28.9424 27.3363 28.9424 30.0701C28.9424 32.8039 31.1586 35.0201 33.8924 35.0201Z" fill="#FEFEFE"/>
<path d="M41.0627 15.3799H1.30273V22.0099H41.0627V15.3799Z" fill="#F7941D"/>
<path d="M41.0625 15.3799V42.2399" stroke="white" stroke-width="2" stroke-miterlimit="10" stroke-linecap="round" stroke-linejoin="round"/>
<path d="M3.60254 1H39.6625" stroke="white" stroke-width="2" stroke-miterlimit="10" stroke-linecap="round" stroke-linejoin="round"/>
<path d="M25.6327 55.5099H2.70273C1.93273 55.5099 1.30273 54.8799 1.30273 54.1099V15.3799" stroke="white" stroke-width="2" stroke-miterlimit="10" stroke-linecap="round" stroke-linejoin="round"/>
<path d="M22.6328 4L22.6328 12L22.6328 4Z" stroke="#F7941D" stroke-width="0.5" stroke-miterlimit="10"/>
<path d="M18.7734 5.3125V11H17.668L15.8828 7.44141V11H14.7969V5.3125H15.8867L17.6875 8.91016V5.3125H18.7734Z" fill="white"/>
<path d="M13.9648 7.71484V8.66406C13.9648 9.0651 13.9154 9.41667 13.8164 9.71875C13.7201 10.0182 13.582 10.2695 13.4023 10.4727C13.2253 10.6732 13.0104 10.8242 12.7578 10.9258C12.5078 11.0273 12.2305 11.0781 11.9258 11.0781C11.6211 11.0781 11.3424 11.0273 11.0898 10.9258C10.8398 10.8242 10.6237 10.6732 10.4414 10.4727C10.2617 10.2695 10.1224 10.0182 10.0234 9.71875C9.92448 9.41667 9.875 9.0651 9.875 8.66406V7.71484C9.875 7.30339 9.92318 6.94401 10.0195 6.63672C10.1159 6.32682 10.2552 6.06901 10.4375 5.86328C10.6198 5.65495 10.8359 5.4987 11.0859 5.39453C11.3359 5.28776 11.6133 5.23438 11.918 5.23438C12.2227 5.23438 12.5 5.28776 12.75 5.39453C13 5.4987 13.2161 5.65495 13.3984 5.86328C13.5807 6.06901 13.7201 6.32682 13.8164 6.63672C13.9154 6.94401 13.9648 7.30339 13.9648 7.71484ZM12.8281 8.66406V7.70703C12.8281 7.4362 12.8086 7.20573 12.7695 7.01562C12.7305 6.82292 12.6719 6.66536 12.5938 6.54297C12.5156 6.42057 12.4206 6.33073 12.3086 6.27344C12.1966 6.21615 12.0664 6.1875 11.918 6.1875C11.7695 6.1875 11.638 6.21615 11.5234 6.27344C11.4115 6.33073 11.3164 6.42057 11.2383 6.54297C11.1628 6.66536 11.1055 6.82292 11.0664 7.01562C11.0299 7.20573 11.0117 7.4362 11.0117 7.70703V8.66406C11.0117 8.92448 11.0312 9.14714 11.0703 9.33203C11.1094 9.51693 11.168 9.66797 11.2461 9.78516C11.3242 9.90234 11.4193 9.98958 11.5312 10.0469C11.6458 10.1016 11.7773 10.1289 11.9258 10.1289C12.0716 10.1289 12.2005 10.1016 12.3125 10.0469C12.4271 9.98958 12.5221 9.90234 12.5977 9.78516C12.6732 9.66797 12.7305 9.51693 12.7695 9.33203C12.8086 9.14714 12.8281 8.92448 12.8281 8.66406Z" fill="white"/>
<path d="M9.35547 10.0547V11H5.97266V10.0547H9.35547ZM9.3125 5.98047L6.46875 11H5.67188V10.3086L8.54688 5.3125H9.3125V5.98047ZM8.92578 5.3125V6.26172H5.64844V5.3125H8.92578Z" fill="white"/>
<path d="M5.08984 7.71484V8.66406C5.08984 9.0651 5.04036 9.41667 4.94141 9.71875C4.84505 10.0182 4.70703 10.2695 4.52734 10.4727C4.35026 10.6732 4.13542 10.8242 3.88281 10.9258C3.63281 11.0273 3.35547 11.0781 3.05078 11.0781C2.74609 11.0781 2.46745 11.0273 2.21484 10.9258C1.96484 10.8242 1.7487 10.6732 1.56641 10.4727C1.38672 10.2695 1.2474 10.0182 1.14844 9.71875C1.04948 9.41667 1 9.0651 1 8.66406V7.71484C1 7.30339 1.04818 6.94401 1.14453 6.63672C1.24089 6.32682 1.38021 6.06901 1.5625 5.86328C1.74479 5.65495 1.96094 5.4987 2.21094 5.39453C2.46094 5.28776 2.73828 5.23438 3.04297 5.23438C3.34766 5.23438 3.625 5.28776 3.875 5.39453C4.125 5.4987 4.34115 5.65495 4.52344 5.86328C4.70573 6.06901 4.84505 6.32682 4.94141 6.63672C5.04036 6.94401 5.08984 7.30339 5.08984 7.71484ZM3.95312 8.66406V7.70703C3.95312 7.4362 3.93359 7.20573 3.89453 7.01562C3.85547 6.82292 3.79688 6.66536 3.71875 6.54297C3.64062 6.42057 3.54557 6.33073 3.43359 6.27344C3.32161 6.21615 3.19141 6.1875 3.04297 6.1875C2.89453 6.1875 2.76302 6.21615 2.64844 6.27344C2.53646 6.33073 2.44141 6.42057 2.36328 6.54297C2.28776 6.66536 2.23047 6.82292 2.19141 7.01562C2.15495 7.20573 2.13672 7.4362 2.13672 7.70703V8.66406C2.13672 8.92448 2.15625 9.14714 2.19531 9.33203C2.23438 9.51693 2.29297 9.66797 2.37109 9.78516C2.44922 9.90234 2.54427 9.98958 2.65625 10.0469C2.77083 10.1016 2.90234 10.1289 3.05078 10.1289C3.19661 10.1289 3.32552 10.1016 3.4375 10.0469C3.55208 9.98958 3.64714 9.90234 3.72266 9.78516C3.79818 9.66797 3.85547 9.51693 3.89453 9.33203C3.93359 9.14714 3.95312 8.92448 3.95312 8.66406Z" fill="white"/>
<path d="M36.0156 8.51953H34.8477L34.8438 7.69141H35.8359C35.9922 7.69141 36.1198 7.66536 36.2188 7.61328C36.3203 7.55859 36.3945 7.47917 36.4414 7.375C36.4909 7.26823 36.5156 7.13932 36.5156 6.98828C36.5156 6.8138 36.4922 6.67448 36.4453 6.57031C36.401 6.46354 36.3294 6.38542 36.2305 6.33594C36.1341 6.28646 36.0065 6.26172 35.8477 6.26172H35.2383V11H34.0938V5.3125H35.8477C36.1289 5.3125 36.3815 5.34375 36.6055 5.40625C36.8294 5.46875 37.0195 5.5651 37.1758 5.69531C37.332 5.82292 37.4518 5.98438 37.5352 6.17969C37.6185 6.3724 37.6602 6.60156 37.6602 6.86719C37.6602 7.10156 37.6133 7.31771 37.5195 7.51562C37.4258 7.71354 37.2786 7.8763 37.0781 8.00391C36.8776 8.12891 36.6185 8.19792 36.3008 8.21094L36.0156 8.51953ZM35.9727 11H34.5234L34.9805 10.0547H35.9727C36.1263 10.0547 36.2487 10.0221 36.3398 9.95703C36.431 9.89193 36.4974 9.80469 36.5391 9.69531C36.5833 9.58333 36.6055 9.45573 36.6055 9.3125C36.6055 9.15104 36.5859 9.01042 36.5469 8.89062C36.5104 8.77083 36.4492 8.67969 36.3633 8.61719C36.2773 8.55208 36.1615 8.51953 36.0156 8.51953H35.0312L35.0391 7.69141H36.2344L36.5039 8.01953C36.8086 8.00911 37.0521 8.06771 37.2344 8.19531C37.4167 8.32031 37.5469 8.48438 37.625 8.6875C37.7057 8.88802 37.7461 9.10156 37.7461 9.32812C37.7461 9.69271 37.6771 10 37.5391 10.25C37.4036 10.4974 37.2044 10.6849 36.9414 10.8125C36.6784 10.9375 36.3555 11 35.9727 11Z" fill="#F7941D"/>
<path d="M29.2539 10.1484L30.1641 5.3125H30.7656L30.9453 6.0625L29.9688 11H29.3164L29.2539 10.1484ZM28.9414 5.3125L29.6758 10.1602L29.5508 11H28.832L27.8125 5.3125H28.9414ZM31.6055 10.1406L32.3359 5.3125H33.4609L32.4492 11H31.7266L31.6055 10.1406ZM31.1133 5.3125L32.0312 10.1758L31.957 11H31.3047L30.332 6.05469L30.5156 5.3125H31.1133Z" fill="#F7941D"/>
</svg>
