<svg width="57" height="67" viewBox="0 0 57 67" fill="none" xmlns="http://www.w3.org/2000/svg">
<g clip-path="url(#clip0_8257_14330)">
<path d="M46.67 13.44V8.4C46.67 4.31 43.36 1 39.27 1H13.69L1 12.86V57.73C1 61.82 4.31 65.13 8.4 65.13H39.27C43.36 65.13 46.67 61.82 46.67 57.73V45.8" stroke="white" stroke-width="2" stroke-linecap="round" stroke-linejoin="round"/>
<path d="M0.919922 14.0701H13.6899V1.3501" stroke="white" stroke-width="2" stroke-miterlimit="10"/>
<path fill-rule="evenodd" clip-rule="evenodd" d="M10.98 51.8501H13.74C14.18 51.8501 14.53 51.4901 14.53 51.0601V43.9101C14.53 43.4701 14.17 43.1201 13.74 43.1201H11.25C10.81 43.1201 10.46 43.4801 10.46 43.9101V51.3301C10.46 51.6201 10.7 51.8601 10.99 51.8601L10.98 51.8501Z" fill="white"/>
<path fill-rule="evenodd" clip-rule="evenodd" d="M18.3104 51.8503H20.9004C21.3404 51.8503 21.6904 51.4903 21.6904 51.0603V40.5503C21.6904 40.1103 21.3304 39.7603 20.9004 39.7603H18.4004C17.9604 39.7603 17.6104 40.1203 17.6104 40.5503V51.1503C17.6104 51.5403 17.9304 51.8603 18.3204 51.8603L18.3104 51.8503Z" fill="white"/>
<path opacity="0.39" d="M31.96 50.7002L36.78 55.5202C35.51 56.6802 33.79 57.4702 31.96 57.5302V50.7002Z" fill="white"/>
<path opacity="0.39" d="M31.2896 57.5303V50.0903H23.8896C24.0196 54.1103 27.2497 57.3403 31.2896 57.5303Z" fill="white"/>
<path d="M23.9004 49.48H31.3004V42.04C27.2704 42.22 24.0304 45.46 23.9004 49.48Z" fill="white"/>
<path d="M31.96 42.04V49.54L37.39 54.97C38.62 53.63 39.4 51.8 39.4 49.79C39.4 45.64 36.1 42.23 31.96 42.04Z" fill="#F7941D"/>
<path d="M28.98 40.7302V36.6102C28.98 36.2602 28.69 35.9702 28.34 35.9702H25.39C25.04 35.9702 24.75 36.2602 24.75 36.6102V42.9902C24.75 43.3402 25.17 43.5102 25.41 43.2702C26.35 42.3402 27.48 41.5902 28.73 41.0902C28.88 41.0302 28.97 40.8902 28.97 40.7302H28.98Z" fill="white"/>
<path d="M11.5402 26.0798C11.0602 26.0798 10.5902 26.0098 10.1402 25.8698C9.69023 25.7298 9.30023 25.5298 8.99023 25.2598L9.65023 24.2298C9.79023 24.3698 9.97023 24.4898 10.1802 24.5998C10.3902 24.6998 10.6102 24.7798 10.8502 24.8398C11.0902 24.8898 11.3202 24.9198 11.5502 24.9198C11.9002 24.9198 12.1902 24.8598 12.4102 24.7298C12.6302 24.5998 12.7402 24.4198 12.7402 24.1898C12.7402 23.9998 12.6602 23.8398 12.5102 23.7098C12.3602 23.5798 12.0702 23.4598 11.6402 23.3398L11.0402 23.1698C10.3902 22.9898 9.91023 22.7398 9.63023 22.4298C9.34023 22.1198 9.20023 21.7398 9.20023 21.2898C9.20023 20.9998 9.26023 20.7398 9.38023 20.4898C9.50023 20.2498 9.67023 20.0398 9.89023 19.8598C10.1102 19.6798 10.3702 19.5498 10.6702 19.4498C10.9702 19.3498 11.2902 19.2998 11.6402 19.2998C12.1102 19.2998 12.5602 19.3698 12.9602 19.5098C13.3702 19.6498 13.7002 19.8398 13.9502 20.0798L13.2702 21.0798C13.1502 20.9598 13.0002 20.8498 12.8202 20.7598C12.6402 20.6698 12.4602 20.5998 12.2502 20.5498C12.0502 20.4998 11.8402 20.4698 11.6302 20.4698C11.4102 20.4698 11.2102 20.4998 11.0402 20.5598C10.8702 20.6198 10.7402 20.7098 10.6502 20.8198C10.5602 20.9298 10.5102 21.0698 10.5102 21.2298C10.5102 21.3498 10.5402 21.4498 10.6102 21.5398C10.6802 21.6198 10.7902 21.7098 10.9502 21.7798C11.1102 21.8498 11.3302 21.9298 11.6102 22.0098L12.2202 22.1898C12.8702 22.3798 13.3302 22.6198 13.6302 22.9098C13.9202 23.1998 14.0702 23.5798 14.0702 24.0498C14.0702 24.4498 13.9702 24.8098 13.7702 25.1198C13.5702 25.4298 13.2802 25.6698 12.9002 25.8398C12.5202 26.0098 12.0702 26.0998 11.5502 26.0998L11.5402 26.0798Z" fill="white"/>
<path d="M15.2307 25.9397V19.4297H19.6807V20.6297H16.6007V22.0297H19.2107V23.1397H16.6007V24.7297H19.7107V25.9397H15.2207H15.2307Z" fill="white"/>
<path d="M24.1202 26.0798C23.6202 26.0798 23.1602 25.9898 22.7402 25.8198C22.3202 25.6498 21.9502 25.4098 21.6402 25.0998C21.3302 24.7898 21.0902 24.4298 20.9202 24.0198C20.7502 23.6098 20.6602 23.1598 20.6602 22.6798C20.6602 22.1998 20.7502 21.7498 20.9202 21.3398C21.0902 20.9298 21.3302 20.5698 21.6402 20.2598C21.9502 19.9498 22.3202 19.7098 22.7402 19.5398C23.1602 19.3698 23.6202 19.2798 24.1202 19.2798C24.6202 19.2798 25.0702 19.3698 25.5002 19.5398C25.9202 19.7098 26.2902 19.9598 26.6002 20.2698C26.9102 20.5798 27.1502 20.9398 27.3302 21.3498C27.5102 21.7598 27.5902 22.1998 27.5902 22.6798C27.5902 23.1598 27.5002 23.6098 27.3302 24.0198C27.1602 24.4298 26.9102 24.7898 26.6002 25.0998C26.2902 25.4098 25.9202 25.6498 25.5002 25.8198C25.0802 25.9898 24.6202 26.0798 24.1202 26.0798ZM24.1202 24.7898C24.4102 24.7898 24.6802 24.7398 24.9202 24.6398C25.1602 24.5398 25.3802 24.3998 25.5602 24.2098C25.7402 24.0198 25.8902 23.7998 25.9902 23.5498C26.0902 23.2898 26.1402 22.9998 26.1402 22.6798C26.1402 22.2598 26.0502 21.8898 25.8702 21.5698C25.6902 21.2498 25.4502 21.0098 25.1502 20.8398C24.8502 20.6698 24.5002 20.5798 24.1202 20.5798C23.8302 20.5798 23.5702 20.6298 23.3202 20.7298C23.0702 20.8298 22.8602 20.9698 22.6802 21.1598C22.5002 21.3398 22.3602 21.5698 22.2602 21.8198C22.1602 22.0798 22.1102 22.3698 22.1102 22.6898C22.1102 23.1098 22.2002 23.4798 22.3802 23.7998C22.5602 24.1198 22.8002 24.3598 23.1002 24.5298C23.4002 24.6998 23.7502 24.7898 24.1302 24.7898H24.1202Z" fill="white"/>
<path d="M45.2792 34.8196C47.6927 34.8196 49.6492 32.8631 49.6492 30.4496C49.6492 28.0361 47.6927 26.0796 45.2792 26.0796C42.8657 26.0796 40.9092 28.0361 40.9092 30.4496C40.9092 32.8631 42.8657 34.8196 45.2792 34.8196Z" stroke="white" stroke-linecap="round" stroke-linejoin="round"/>
<path d="M53.9995 34.2398L52.1695 32.9198C52.2295 32.7498 52.2895 32.5798 52.3395 32.3998C52.5395 31.6498 52.6195 30.8898 52.5795 30.1498L54.6895 29.3998C55.0695 29.2598 55.2695 28.8398 55.1395 28.4598L54.2395 25.9198C54.0995 25.5398 53.6795 25.3398 53.2995 25.4698L51.2295 26.1998C50.4795 25.1298 49.4595 24.2598 48.2295 23.6998L48.4795 21.7498C48.5295 21.3498 48.2495 20.9798 47.8395 20.9298L45.1695 20.5898C44.7695 20.5398 44.3995 20.8198 44.3395 21.2298L44.0995 23.0898C42.7995 23.2698 41.5795 23.7898 40.5495 24.5798L38.9595 23.4398C38.6295 23.1998 38.1695 23.2798 37.9295 23.6098L36.3495 25.7998C36.1095 26.1298 36.1895 26.5898 36.5195 26.8298L38.0795 27.9498C37.9995 28.1598 37.9295 28.3698 37.8795 28.5898C37.6595 29.4098 37.5995 30.2298 37.6495 31.0298L35.8295 31.6698C35.4495 31.8098 35.2495 32.2298 35.3795 32.6098L36.2795 35.1498C36.4195 35.5298 36.8395 35.7298 37.2195 35.5998L39.0895 34.9398C39.8795 36.0098 40.9595 36.8698 42.2495 37.3998L42.0295 39.1398C41.9795 39.5398 42.2595 39.9098 42.6695 39.9598L45.3395 40.2998C45.7395 40.3498 46.1095 40.0698 46.1595 39.6598L46.3895 37.8398C47.6195 37.6198 48.7695 37.0998 49.7395 36.3298L51.5395 37.6298C51.8695 37.8698 52.3295 37.7898 52.5695 37.4598L54.1495 35.2698C54.3895 34.9398 54.3095 34.4798 53.9795 34.2398H53.9995Z" stroke="white" stroke-width="2" stroke-linecap="round" stroke-linejoin="round"/>
<path d="M22.0996 8.3999H39.4096" stroke="white" stroke-width="2" stroke-linecap="round" stroke-linejoin="round"/>
<path d="M28.9805 12.5498H39.4105" stroke="white" stroke-width="2" stroke-linecap="round" stroke-linejoin="round"/>
</g>
<defs>
<clipPath id="clip0_8257_14330">
<rect width="56.18" height="66.13" fill="white"/>
</clipPath>
</defs>
</svg>
