<svg id="Layer_1" xmlns="http://www.w3.org/2000/svg" viewBox="0 0 1500 787.12"><defs><style>.cls-1{fill:#f09123;}.cls-2{fill:#fff;}.cls-3{fill:#1b1b1b;}</style></defs><polygon class="cls-1" points="1004.02 770.15 607.65 770.15 495.98 490.99 886.66 490.99 1004.02 770.15"/><polygon class="cls-1" points="1500 770.15 1103.63 770.15 991.96 490.99 1382.64 490.99 1500 770.15"/><path class="cls-3" d="M737.28,548.7c-1.56-2.33-2.72-3.88-5.44-7.58l21.35-6.79c3.49,5.44,4.86,8.16,7.96,14.37h52.79c9.89,0,14.94-.2,21.34-.78-.58,3.88-.77,6.21-.77,11.65v8.73c0,6.6.19,9.71.97,13.6h-15.14v5.03c-6.02-.58-10.09-.77-18.63-.77h-18.05v7.37h16.88c9.12,0,12.42-.19,17.07-.77v14.35c-5.43-.58-8.73-.77-17.07-.77h-16.88v6.98h35.91c9.31,0,13.38-.19,18.82-.97v16.7c-6.21-.97-9.51-1.16-18.82-1.16h-18.25c14.56,8.35,24.26,12.03,40.75,15.53-4.26,6.2-6.2,9.7-9.12,16.87-2.71-.96-3.49-1.16-6.21-2.12-9.31-3.11-12.03-4.28-17.66-7.18v16.3c0,5.43.19,10.09.77,19.79h-21.92c.38-4.65.38-7.37.58-15.53v-19.01h-77.05v19.4c0,.77,0,1.75.2,3.3,0,5.82,0,7.56.38,11.84h-21.73c.58-5.05.77-9.7.77-19.6v-15.91c-6.98,3.88-10.28,5.24-23.87,9.7-2.53-6.6-4.28-9.89-9.32-16.88,17.09-4.26,26.79-8.14,40.17-16.49h-17.07c-9.31,0-13,.19-19.01,1.16v-16.7c5.24.78,9.5.97,19.01.97h34.74v-6.98h-15.33c-8.74,0-12.04.19-17.28.77v-14.35c4.86.58,8.14.77,17.28.77h15.33v-7.37h-16.49c-8.74,0-12.81.19-18.64.77v-5.61l-15.91.19c.78-3.69.97-6.99.97-13.58v-8.35c0-5.44-.19-7.77-.77-11.65,6.4.58,11.45.78,21.34.78h51.05ZM759.4,658.53c-2.72,21.74-8.35,32.02-22.7,42.51-14.37,10.28-34.35,16.29-63.84,19.21-2.91-5.25-3.11-5.63-12.04-16.11,26.98-1.35,44.84-5.24,57.26-12.23,8.93-5.05,15.33-11.45,18.44-18.24,1.75-4.07,2.71-7.56,3.68-15.14h19.21ZM685.65,571.8c3.3.38,5.25.38,11.84.38h18.25v-8.14h-30.09v7.77ZM787.35,637.38c-5.25-3.88-6.79-5.05-12.62-9.51h-50.45c-1.75,1.75-2.91,2.52-7.18,5.82-3.1,2.33-3.49,2.53-4.84,3.69h75.1ZM764.25,564.03h-29.11v8.14h29.11v-8.14ZM735.14,586.15v7.37h29.11v-7.37h-29.11ZM764.25,613.32v-6.98h-29.11v6.98h29.11ZM826.35,720.83c-11.26-4.46-14.17-5.44-35.14-11.26-.96-.39-14.17-3.49-39.38-9.9l10.09-15.52c6.79,1.35,10.66,2.33,39.38,9.31,11.07,2.91,12.23,3.11,32.61,9.9l-7.56,17.47ZM803.06,572.17c6.99,0,8.16,0,11.46-.19v-7.96h-30.86v8.14h19.4Z"/><path class="cls-3" d="M1175.93,658.92q0-8.14.39-21.93c-4.65,6.6-7.18,9.13-13.98,14.95-2.91-10.09-5.05-14.56-8.93-20.56,12.81-9.51,23.09-20.19,31.63-33,4.65-6.98,7.96-12.81,9.9-17.47l16.49,12.23c-1.56,2.14-3.3,4.84-5.82,9.12-2.14,3.68-5.83,8.93-9.51,13.98v79.17c0,12.61.19,17.47.97,23.09h-22.32c.77-5.24,1.16-11.65,1.16-21.35v-38.23ZM1213.19,548.69c-.97.97-1.56,1.75-2.14,2.33-.38.58-.58.58-.96.97,6.01.77,11.26.97,19.98.97h30.08c.39-1.75.78-6.21,1.37-13.2l21.73,1.16c-.77,4.46-1.93,10.3-2.14,12.04h32.61c9.32,0,14.95-.39,20.37-.97v19.21c-6.4-.77-9.89-.97-18.63-.97h-37.06q-.2,1.56-.78,4.65c-.19,1.76-.58,3.5-1.35,6.81h35.7c6.4,0,12.23-.2,17.07-.6-.58,4.46-.77,7.77-.77,15.34v19.79c0,6.79.19,10.47.77,14.75-5.43-.58-9.51-.78-16.88-.78h-83.64c-5.43,0-8.73,0-16.3.58.39-3.87.58-6.98.58-12.22v-24.45c0-5.63-.19-9.13-.58-13.02,6.41.39,10.09.6,15.72.6h27.37c.77-3.3,1.54-6.99,2.33-11.46h-29.3c-8.16,0-12.42.2-18.63.78v-18.44c-.97,1.16-1.37,1.75-2.33,2.72-9.9,11.84-12.81,14.75-22.32,22.89-7.18,6.02-11.64,9.51-18.43,13.79-3.5-7.96-5.44-11.26-11.07-18.25,12.03-6.98,18.24-11.64,26.98-20.37,6.59-6.4,9.89-10.67,12.8-16.1l17.86,11.45ZM1198.44,699.67c9.31-12.61,14.17-22.12,17.47-34.54l17.26,8.35c-6.01,17.07-10.66,26.98-18.82,39.21l-15.91-13.02ZM1271.4,658.54c6.99,5.24,12.62,10.28,19.21,17.26l-14.35,11.26c-9.32-11.26-15.14-17.26-23.88-23.87l7.58-4.65h-35.91c-8.14,0-12.42.19-18.63.77v-19.4c5.83.77,11.65.96,20.37.96h89.28c9.31,0,14.94-.38,20.37-.96v19.59c-6.41-.77-9.9-.96-18.63-.96h-45.42ZM1230.65,613.7h15.72v-15.72h-15.72v15.72ZM1255.49,692.69c0,4.28,2.14,5.05,12.81,5.05,12.8,0,16.1-.39,18.82-1.75,2.72-1.75,3.88-6.02,4.07-16.7,7.37,3.3,9.51,3.88,18.25,5.83-1.16,13.58-4.09,21.73-8.74,25.61-4.84,3.88-13.39,5.44-30.47,5.44-13,0-19.98-.78-24.65-2.53-6.59-2.52-9.31-6.79-9.31-14.56v-15.91c0-6.59-.19-10.09-.97-14.94h21.16c-.78,5.63-.97,7.96-.97,13.77v10.67ZM1262.68,613.7h15.72v-15.72h-15.72v15.72ZM1294.69,613.7h15.53v-15.72h-15.53v15.72ZM1321.28,712.87c-6.02-20.19-8.55-26-17.67-39.79l16.49-8.33c10.3,14.54,13.39,20.75,18.44,36.47l-17.26,11.65Z"/><polygon class="cls-1" points="508.04 770.15 111.67 770.15 0 490.99 390.68 490.99 508.04 770.15"/><path d="M232.04,592.35h15.89c7.35,0,12.11-.2,16.88-.99v21.64c-4.96-.8-9.73-.99-17.27-.99h-15.49v5.35c18.27,15.89,19.26,16.88,32.76,33.56l-14.49,17.47c-5.36-9.13-8.54-13.7-18.27-25.81v53.8c0,12.51.2,18.27,1.19,25.22h-23.42c.99-7.35,1.19-13.9,1.19-25.22v-33.16c0-8.33.4-16.88,1-23.82-5.76,14.49-8.34,20.05-13.5,28-5.36,8.53-9.53,13.9-17.07,21.84-3.98-9.33-6.96-14.89-11.12-20.85,9.93-9.13,17.27-18.66,25.02-32.36,4.57-8.14,10.53-19.85,11.92-24.02h-14.1c-7.74,0-12.91.39-18.27,1.19v-22.04c5.16.99,9.73,1.19,18.67,1.19h17.67v-21.64c-1,.2-1.39.2-2.98.6-8.34,1.59-14.09,2.58-26.21,4.37-.79-4.96-2.97-10.53-6.95-18.27,32.76-3.38,63.94-11.12,76.45-19.06l12.71,17.47c-14.69,4.96-23.23,7.74-32.16,10.13v26.4ZM298.76,552.84c-1,6.55-1.2,12.31-1.2,24.02v75.06c0,12.71.2,17.67,1,23.63h-23.43c.8-5.76.99-9.94.99-23.23v-75.46c0-11.51-.19-17.07-1.19-24.02h23.83ZM346.01,540.93c-1,7.94-1.39,15.68-1.39,27v127.68c0,10.53-2.58,16.28-8.94,19.66-4.96,2.58-11.32,3.38-27.8,3.38-5.36,0-8.14,0-14.49-.4-1.59-8.94-3.18-13.5-6.76-22.05,11.32,1.2,19.07,1.79,26.21,1.79,8.54,0,10.13-1,10.13-5.96v-124.1c0-9.93-.4-18.27-1.19-27h24.22Z"/><polygon class="cls-2" points="881.32 143.75 881.32 368.65 851.1 444.39 807 444.39 807 143.75 881.32 143.75"/><path class="cls-2" d="M406.85,444.42h-155.48l29.82-74.54h125.66c26.88,0,48.74-21.87,48.74-48.74s-21.87-48.74-48.74-48.74h-32.2c-67.98,0-123.28-55.3-123.28-123.28v-8.6c0-67.97,55.3-123.28,124.77-123.28h134.16l-29.82,74.54h-105.84c-26.88,0-48.74,21.86-48.74,48.74v8.6c0,26.88,21.87,48.74,48.74,48.74h32.2c67.98,0,123.28,55.3,123.28,123.28s-55.3,123.28-123.28,123.28Z"/><path class="cls-2" d="M1217.48,230.83c0,18.06-2.16,35.52-6.34,52.23-22.09,90.22-101.71,157.75-212.89,161.33-3.13.15-6.34.22-9.55.22h-31.71l-18.95-.07-56.71-.15,29.7-74.62,57.23.07h44.4c16.34-.82,32.08-4.55,46.48-10.6,31.79-13.28,57.61-38.06,72.31-69.17,8.5-17.98,13.28-38.06,13.28-59.25,0-7.76-.67-15.37-1.94-22.83-8.88-54.18-49.18-97.9-101.56-111.71-20.59-5.6-70.36-5.15-77.83-5h-75.59l28.73-74.32h87.08c11.64,0,23.06.97,34.25,2.76,50.89,8.21,95.81,34.47,128.05,72.01,32.08,37.38,51.56,86.04,51.56,139.09Z"/><polygon class="cls-2" points="956.99 444.61 938.03 444.61 938.03 444.54 956.99 444.61"/><path class="cls-2" d="M1340.36,366.57l159.64-64.6c-6.96-33.57-20.71-59.63-41.33-78.1-20.62-18.39-46.85-27.66-78.66-27.66-24.06,0-46.12,5.6-66.03,16.71-19.91,11.19-35.66,26.06-47.41,44.69-11.67,18.63-17.51,39.65-17.51,62.99s5.12,45.48,15.35,64.11c10.23,18.62,25.1,33.25,44.68,43.81,19.5,10.63,42.61,15.91,69.31,15.91,13.51,0,27.42-2.32,41.89-6.88,14.39-4.56,27.66-10.63,39.73-18.31l-24.64-61.5c-54.33,34.4-92.83,11.88-95.03,8.83ZM1422.17,268.76l-106.5,47.09c-2.86-14.79,8.84-41.6,31.29-53.76,23.5-12.74,58.21-10.14,75.21,6.68Z"/><path class="cls-2" d="M651.41,196.21l-107.66,248.44h215.32l-107.66-248.44Z"/><path class="cls-2" d="M881.32,54.14h0c0,20.51-16.63,37.14-37.14,37.14h0c-20.51,0-37.14-16.63-37.14-37.14h0c0-20.51,16.63-37.14,37.14-37.14h0c20.51,0,37.14,16.63,37.14,37.14Z"/><polygon class="cls-2" points="209.88 349.62 209.88 444.65 0 444.65 0 234.82 94.22 234.82 94.22 349.62 209.88 349.62"/><path class="cls-2" d="M130.08,234.82h79.8s0,78.92,0,78.92h-79.8v-78.92Z"/></svg>