<svg width="36" height="30" viewBox="0 0 36 30" fill="none" xmlns="http://www.w3.org/2000/svg">
<path d="M19.0566 30C10.7816 30 4.05664 23.301 4.05664 15.027C4.05664 6.752 10.7816 0 19.0566 0C27.3306 0 34.0566 6.752 34.0566 15.027C34.0566 23.301 27.3306 30 19.0566 30Z" fill="#FF5226"/>
<path d="M16.734 2.02979L0 28.1398H7.671L17.338 13.0898L17.102 12.9828L14.422 23.7528L20.096 24.7528L25.928 17.4228L25.612 17.2658L23.642 25.5918L36.005 23.2358L33.483 19.0818L29.027 20.1018L29.553 20.7068L31.628 12.0118L26.794 8.77979L20.464 16.7398L20.779 16.8978L23.379 6.46778L16.734 2.02979Z" fill="#FFDD00"/>
<path d="M16.734 2.02979L0 28.1398H7.671L17.338 13.0898L17.102 12.9828L14.422 23.7528L20.096 24.7528L25.928 17.4228L25.612 17.2658L23.642 25.5918L28.612 24.6448L31.628 12.0118L26.794 8.77979L20.464 16.7398L20.779 16.8978L23.379 6.46778L16.734 2.02979Z" fill="#FFDD00"/>
</svg>
