<svg width="56" height="64" viewBox="0 0 56 64" fill="none" xmlns="http://www.w3.org/2000/svg">
<g clip-path="url(#clip0_8258_14376)">
<path d="M24.9705 2.06C27.1405 1.37 29.4405 1 31.8405 1C44.3705 1 54.5205 11.16 54.5205 23.68C54.5205 36.2 44.3605 46.36 31.8405 46.36C21.7205 46.36 13.1505 39.74 10.2305 30.59" stroke="white" stroke-width="2" stroke-linecap="round" stroke-linejoin="round"/>
<path d="M20.5607 48.45L16.4707 60.45L23.3107 57.41L26.2507 62.27L30.2007 50.31" stroke="white" stroke-width="2" stroke-linecap="round" stroke-linejoin="round"/>
<path d="M43.1107 48.45L47.2007 60.45L40.3607 57.41L37.4207 62.27L33.4707 50.31" stroke="white" stroke-width="2" stroke-linecap="round" stroke-linejoin="round"/>
<path d="M19.5901 20.98C19.2201 20.98 18.8601 20.93 18.5101 20.82C18.1601 20.71 17.8601 20.56 17.6201 20.35L18.1301 19.55C18.2401 19.66 18.3801 19.75 18.5401 19.83C18.7001 19.91 18.8701 19.97 19.0601 20.01C19.2401 20.05 19.4201 20.07 19.6001 20.07C19.8701 20.07 20.0901 20.02 20.2601 19.93C20.4301 19.84 20.5201 19.69 20.5201 19.51C20.5201 19.36 20.4601 19.24 20.3401 19.14C20.2201 19.04 20.0001 18.95 19.6701 18.85L19.2101 18.72C18.7001 18.58 18.3401 18.39 18.1201 18.15C17.9001 17.91 17.7901 17.61 17.7901 17.27C17.7901 17.05 17.8401 16.84 17.9301 16.65C18.0201 16.46 18.1501 16.3 18.3201 16.16C18.4901 16.02 18.6901 15.92 18.9201 15.84C19.1501 15.76 19.4001 15.73 19.6701 15.73C20.0401 15.73 20.3801 15.78 20.6901 15.89C21.0001 16 21.2601 16.14 21.4601 16.33L20.9401 17.1C20.8401 17.01 20.7301 16.92 20.5901 16.85C20.4501 16.78 20.3101 16.72 20.1501 16.68C19.9901 16.64 19.8301 16.62 19.6701 16.62C19.5001 16.62 19.3501 16.64 19.2201 16.69C19.0901 16.74 18.9901 16.8 18.9201 16.89C18.8501 16.98 18.8101 17.08 18.8101 17.2C18.8101 17.29 18.8401 17.37 18.8901 17.44C18.9401 17.51 19.0301 17.57 19.1501 17.62C19.2701 17.68 19.4401 17.74 19.6601 17.8L20.1301 17.94C20.6301 18.09 20.9901 18.27 21.2201 18.5C21.4501 18.73 21.5601 19.02 21.5601 19.38C21.5601 19.69 21.4801 19.97 21.3201 20.2C21.1601 20.43 20.9401 20.62 20.6401 20.76C20.3501 20.89 20.0001 20.96 19.6001 20.96L19.5901 20.98Z" fill="white"/>
<path d="M22.4397 20.8701V15.8401H25.8797V16.7701H23.4997V17.8501H25.5097V18.7101H23.4997V19.9401H25.8997V20.8801H22.4297L22.4397 20.8701Z" fill="white"/>
<path d="M29.2999 20.98C28.9199 20.98 28.5599 20.91 28.2399 20.78C27.9099 20.65 27.6299 20.46 27.3899 20.22C27.1499 19.98 26.9599 19.71 26.8299 19.39C26.6999 19.07 26.6299 18.73 26.6299 18.35C26.6299 17.97 26.6999 17.63 26.8299 17.31C26.9599 16.99 27.1499 16.71 27.3899 16.48C27.6299 16.24 27.9099 16.06 28.2399 15.93C28.5699 15.8 28.9199 15.73 29.2999 15.73C29.6799 15.73 30.0399 15.8 30.3599 15.93C30.6799 16.06 30.9699 16.25 31.2099 16.49C31.4499 16.73 31.6399 17.01 31.7699 17.33C31.8999 17.65 31.9699 17.99 31.9699 18.36C31.9699 18.73 31.8999 19.08 31.7699 19.4C31.6399 19.72 31.4499 20 31.2099 20.23C30.9699 20.47 30.6899 20.65 30.3599 20.79C30.0299 20.92 29.6799 20.99 29.2999 20.99V20.98ZM29.2999 19.98C29.5199 19.98 29.7299 19.94 29.9199 19.86C30.1099 19.78 30.2699 19.67 30.4199 19.53C30.5699 19.39 30.6699 19.22 30.7499 19.02C30.8299 18.82 30.8699 18.6 30.8699 18.35C30.8699 18.02 30.7999 17.74 30.6599 17.49C30.5199 17.24 30.3399 17.06 30.0999 16.92C29.8599 16.79 29.5999 16.72 29.2999 16.72C29.0799 16.72 28.8699 16.76 28.6799 16.83C28.4899 16.91 28.3199 17.02 28.1799 17.16C28.0399 17.3 27.9299 17.47 27.8499 17.67C27.7699 17.87 27.7299 18.09 27.7299 18.34C27.7299 18.67 27.7999 18.95 27.9299 19.2C28.0699 19.44 28.2499 19.63 28.4899 19.77C28.7299 19.91 28.9899 19.97 29.2799 19.97L29.2999 19.98Z" fill="white"/>
<path d="M8.57 26.8001C8.78 25.9801 9 25.2301 9.18 24.4701C9.48 23.2101 9.61 21.9501 9.29 20.6701C9.21 20.3401 9.08 20.3401 8.84 20.5301C7.34 21.7401 5.84 22.9401 4.35 24.1501C2.97 25.2701 1.59 26.3901 0.21 27.5101C0.18 27.5301 0.14 27.5401 0 27.5901C2.42 24.5701 4.78 21.6301 7.23 18.5801C5.99 18.3901 4.89 18.3901 3.8 18.5301C2.72 18.6701 1.65 18.9501 0.49 19.0901C0.75 18.6901 1.01 18.2801 1.27 17.8801C2.04 16.7201 2.83 15.5601 3.59 14.3901C3.76 14.1301 3.94 14.0501 4.23 14.0601C5.41 14.0901 6.59 14.0901 7.77 14.1301C8.19 14.1401 8.48 14.0001 8.77 13.7101C11.35 11.1201 13.94 8.53006 16.55 5.96006C16.81 5.70006 17.2 5.50006 17.56 5.42006C19.29 5.04006 21.03 4.71006 22.77 4.36006C22.93 4.33006 23.09 4.33006 23.32 4.31006C23.21 4.95006 23.11 5.56006 22.99 6.16006C22.72 7.54006 22.45 8.93006 22.15 10.3001C22.1 10.5201 21.95 10.7501 21.79 10.9201C19.17 13.5501 16.53 16.1801 13.89 18.7901C13.6 19.0801 13.47 19.3801 13.48 19.7901C13.48 20.9701 13.48 22.1501 13.43 23.3301C13.43 23.5301 13.3 23.7901 13.14 23.9001C11.68 24.8601 10.2 25.7901 8.72 26.7201C8.69 26.7401 8.64 26.7501 8.56 26.7901L8.57 26.8001Z" fill="#F7941D"/>
<path d="M34.9002 29.3701C34.1602 29.3701 33.4802 29.2601 32.8302 29.0001C32.2702 28.7801 31.7702 28.4701 31.3602 28.0201C31.0702 27.7101 30.8602 27.3501 30.7602 26.9301C30.6202 26.3501 30.7002 25.8001 31.0002 25.2801C31.2502 24.8501 31.6002 24.5101 32.0102 24.2401C32.5402 23.8901 33.1202 23.6701 33.7302 23.5501C34.2002 23.4501 34.6802 23.4201 35.1602 23.4501C36.0202 23.5001 36.8302 23.7101 37.5702 24.1601C37.9502 24.3901 38.2902 24.6801 38.5602 25.0501C38.7802 25.3501 38.9302 25.6801 38.9902 26.0401C39.0702 26.5601 38.9902 27.0601 38.7202 27.5201C38.4502 27.9901 38.0702 28.3501 37.6102 28.6301C37.0802 28.9601 36.5102 29.1701 35.8902 29.2801C35.5502 29.3401 35.2002 29.3701 34.9002 29.3701ZM34.7702 28.0101C35.2102 28.0101 35.5502 27.9701 35.9002 27.8801C36.2802 27.7801 36.6502 27.6401 36.9802 27.4101C37.2102 27.2501 37.4202 27.0601 37.5502 26.8101C37.6502 26.6301 37.6902 26.4401 37.6402 26.2401C37.6102 26.0901 37.5402 25.9601 37.4502 25.8401C37.2602 25.5801 37.0102 25.3901 36.7302 25.2401C36.1702 24.9401 35.5702 24.8101 34.9502 24.8001C34.6102 24.8001 34.2702 24.8301 33.9402 24.9001C33.4902 25.0001 33.0802 25.1601 32.7002 25.4301C32.4902 25.5801 32.3102 25.7601 32.1802 25.9901C32.0202 26.2701 32.0302 26.5601 32.1902 26.8401C32.2502 26.9501 32.3302 27.0501 32.4202 27.1401C32.6502 27.3901 32.9402 27.5601 33.2502 27.6901C33.7702 27.9101 34.3102 28.0101 34.7802 28.0101H34.7702Z" fill="#F7941D"/>
<path d="M21.15 23.45C22.77 23.44 24.12 24.77 24.11 26.42C24.11 28.01 22.84 29.38 21.14 29.38C19.44 29.38 18.16 28.01 18.17 26.38C18.19 24.69 19.57 23.43 21.15 23.44V23.45ZM21.14 28.02C21.98 28.02 22.75 27.36 22.75 26.42C22.75 25.51 22.02 24.81 21.15 24.81C20.21 24.81 19.55 25.58 19.54 26.39C19.52 27.24 20.22 28.02 21.14 28.02Z" fill="#F7941D"/>
<path d="M41.41 26.2201C41.41 26.2801 41.41 26.3101 41.41 26.3501C41.41 27.0701 41.41 27.8001 41.41 28.5201C41.41 28.6001 41.41 28.6801 41.38 28.7501C41.3 29.0601 41.03 29.2501 40.7 29.2501C40.4 29.2501 40.13 29.0301 40.06 28.7301C40.05 28.6701 40.04 28.6101 40.04 28.5601C40.04 26.9801 40.04 25.3901 40.04 23.8101C40.04 23.7201 40.06 23.6401 40.16 23.6001C40.23 23.5701 40.3 23.6001 40.35 23.6401C40.48 23.7401 40.61 23.8501 40.74 23.9501C41.69 24.7001 42.64 25.4601 43.59 26.2101C43.74 26.3301 43.88 26.4401 44.03 26.5601C44.05 26.5801 44.08 26.5901 44.11 26.6201C44.11 26.5701 44.11 26.5301 44.11 26.4901C44.11 25.7601 44.11 25.0201 44.11 24.2901C44.11 24.1601 44.14 24.0401 44.2 23.9301C44.32 23.7101 44.6 23.5401 44.93 23.6101C45.2 23.6601 45.42 23.9001 45.46 24.1701C45.46 24.2301 45.47 24.3001 45.47 24.3601C45.47 25.9001 45.47 27.4401 45.47 28.9901C45.47 29.0301 45.47 29.0701 45.47 29.1101C45.44 29.2501 45.3 29.3101 45.18 29.2201C45.07 29.1401 44.97 29.0601 44.87 28.9801C43.74 28.0801 42.61 27.1901 41.49 26.2901C41.47 26.2701 41.44 26.2601 41.4 26.2301L41.41 26.2201Z" fill="#F7941D"/>
<path d="M27.2297 27.8801C27.2297 27.8801 27.3097 27.8801 27.3597 27.8801C28.0697 27.8801 28.7797 27.8801 29.4997 27.8801C29.6397 27.8801 29.7697 27.9001 29.8997 27.9701C30.1497 28.1201 30.2997 28.4101 30.2197 28.7301C30.1497 29.0201 29.8897 29.2301 29.5897 29.2401C29.5597 29.2401 29.5197 29.2401 29.4897 29.2401C27.9697 29.2401 26.4597 29.2401 24.9397 29.2401C24.8997 29.2401 24.8597 29.2401 24.8197 29.2401C24.6897 29.2301 24.6097 29.0901 24.6697 28.9801C24.6897 28.9401 24.7197 28.9101 24.7397 28.8701C25.3997 28.0001 26.0597 27.1201 26.7297 26.2501C27.0397 25.8501 27.3397 25.4401 27.6497 25.0401C27.6697 25.0201 27.6797 24.9901 27.7097 24.9501C27.6597 24.9501 27.6297 24.9501 27.5897 24.9501C26.9797 24.9501 26.3597 24.9501 25.7497 24.9501C25.6097 24.9501 25.4797 24.9201 25.3697 24.8401C25.1597 24.7001 25.0497 24.5001 25.0497 24.2601C25.0497 23.8501 25.3597 23.6201 25.6397 23.5901C25.6897 23.5901 25.7397 23.5801 25.7997 23.5801C27.2097 23.5801 28.6097 23.5801 30.0197 23.5801C30.0497 23.5801 30.0797 23.5801 30.1197 23.5801C30.2697 23.6101 30.3397 23.7601 30.2497 23.8901C30.1497 24.0301 30.0397 24.1701 29.9397 24.3001C29.3297 25.1001 28.7297 25.9101 28.1197 26.7101C27.8597 27.0601 27.5897 27.4101 27.3297 27.7601C27.2997 27.7901 27.2797 27.8301 27.2597 27.8701V27.8901L27.2297 27.8801Z" fill="#F7941D"/>
</g>
<defs>
<clipPath id="clip0_8258_14376">
<rect width="55.52" height="63.27" fill="white"/>
</clipPath>
</defs>
</svg>
