<svg width="71" height="16" viewBox="0 0 71 16" fill="none" xmlns="http://www.w3.org/2000/svg">
<g clip-path="url(#clip0_7941_14473)">
<path d="M5.68967 15.7733V14.1848C5.68967 12.0288 5.42222 10.9623 4.49823 9.1012L0 0.000678848H3.11223L6.92978 7.78486C8.04823 10.0545 8.53456 11.2345 8.53456 13.8444V15.7734L5.68967 15.7733ZM7.51334 7.62593L11.0633 0.000488281H14.054L10.4553 7.62602L7.51334 7.62593Z" fill="#F71D21"/>
<path d="M65.1401 11.9153L62.6844 15.7733H59.7421L63.584 9.82736L59.8881 4.3579H63.1464L65.4806 7.80754L67.5717 4.3579H70.4652L67.0125 9.89549L71.0001 15.7733H67.7419L65.1401 11.9153ZM52.1069 9.03298H56.1432V8.80621C56.1432 7.37629 55.7054 6.26423 54.2709 6.26423C52.885 6.26423 52.1797 7.21745 52.1069 9.03298ZM54.9031 16.0003C51.2072 16.0003 49.1161 14.0713 49.1161 10.0997C49.1161 6.65013 50.7938 4.13093 54.3194 4.13093C57.2131 4.13093 59.0852 5.62879 59.0852 9.60039V11.0302H52.1069C52.2285 12.9366 53.0308 13.867 55.1462 13.867C56.5565 13.867 58.064 13.3677 58.9636 12.8004V15.0018C58.1127 15.5464 56.7511 16.0004 54.9031 16.0004M39.5608 10.1452C39.5608 12.7323 40.339 13.867 41.9194 13.867C43.5485 13.867 44.3752 12.7096 44.3752 10.0543C44.3752 7.42174 43.5972 6.26423 42.0408 6.26423C40.3875 6.26423 39.5608 7.44451 39.5608 10.1452ZM36.5701 10.1451C36.5701 6.33236 38.5154 4.13093 41.3115 4.13093C42.5759 4.13093 43.6458 4.67567 44.3752 5.69692V0.000488281H47.2686V15.7737H44.5941L44.4481 14.2987C43.67 15.4107 42.5515 16.0007 41.1899 16.0007C38.4666 16.0007 36.5701 13.9128 36.5701 10.1455M27.8168 15.7737H24.9232V4.35875H27.7438L27.8168 5.31197H27.9626C28.5462 4.76733 29.5674 4.17724 31.2937 4.17724C33.6522 4.17724 34.6248 5.17581 34.6248 7.44527V15.7742H31.7315V7.71759C31.7315 6.85528 31.2695 6.4467 30.2481 6.4467C29.2026 6.4467 28.3517 6.96866 27.8168 7.58153V15.7737ZM19.6712 10.4405H19.2579C16.7777 10.4405 15.7809 10.9171 15.7809 12.256C15.7809 13.2775 16.3887 13.9582 17.6045 13.9582C18.6256 13.9582 19.3065 13.5496 19.6711 13.0504L19.6712 10.4405ZM22.5646 12.9823C22.5646 13.9128 22.6133 14.8434 22.7106 15.7737H19.89C19.7928 15.5468 19.6956 15.161 19.6711 14.866H19.5497C18.9904 15.4107 18.2608 15.9326 16.5589 15.9326C14.3219 15.9326 12.8145 14.6391 12.8145 12.3243C12.8145 10.0093 14.7839 8.64765 19.2092 8.64765H19.6712V8.01211C19.6712 6.78658 19.039 6.33274 17.6531 6.33274C16.1698 6.33274 14.4679 6.92283 13.6897 7.46757V5.22078C14.5651 4.74408 16.0726 4.17676 17.9935 4.17676C21.0572 4.17676 22.5646 5.22069 22.5646 7.98944V12.9823Z" fill="white"/>
<rect x="-123.5" y="-228.5" width="1148" height="730" rx="25.5" stroke="#D9D9D9" stroke-dasharray="2 2"/>
</g>
<defs>
<clipPath id="clip0_7941_14473">
<rect width="71" height="16" fill="white"/>
</clipPath>
</defs>
</svg>
