<svg width="46" height="64" viewBox="0 0 46 64" fill="none" xmlns="http://www.w3.org/2000/svg">
<path d="M42.2499 59.29H32.7299L30.2399 46.97H27.8799" stroke="white" stroke-width="2" stroke-miterlimit="10" stroke-linecap="round" stroke-linejoin="round"/>
<path d="M44.9797 49.75L42.9497 55.34" stroke="white" stroke-width="2" stroke-miterlimit="10" stroke-linecap="round" stroke-linejoin="round"/>
<path d="M30.7998 49.75H44.9798" stroke="white" stroke-width="2" stroke-miterlimit="10" stroke-linecap="round" stroke-linejoin="round"/>
<path d="M42.9497 55.3401H31.9297" stroke="white" stroke-width="2" stroke-miterlimit="10" stroke-linecap="round" stroke-linejoin="round"/>
<path d="M34.9499 63.8199C35.6899 63.8199 36.2899 63.22 36.2899 62.4799C36.2899 61.7398 35.6899 61.1399 34.9499 61.1399C34.2098 61.1399 33.6099 61.7398 33.6099 62.4799C33.6099 63.22 34.2098 63.8199 34.9499 63.8199Z" fill="white"/>
<path d="M40.6798 63.8199C41.4199 63.8199 42.0198 63.22 42.0198 62.4799C42.0198 61.7398 41.4199 61.1399 40.6798 61.1399C39.9398 61.1399 39.3398 61.7398 39.3398 62.4799C39.3398 63.22 39.9398 63.8199 40.6798 63.8199Z" fill="white"/>
<path d="M13.5798 38.1299H4.75982C4.51982 38.1299 4.31982 37.9299 4.31982 37.6899V37.0799C4.31982 36.8399 4.51982 36.6399 4.75982 36.6399H13.5798C13.8198 36.6399 14.0198 36.8399 14.0198 37.0799V37.6899C14.0298 37.9299 13.8298 38.1299 13.5798 38.1299Z" fill="#FEFEFE"/>
<path d="M13.5798 40.9299H4.75982C4.51982 40.9299 4.31982 40.7299 4.31982 40.4899V39.8799C4.31982 39.6399 4.51982 39.4399 4.75982 39.4399H13.5798C13.8198 39.4399 14.0198 39.6399 14.0198 39.8799V40.4899C14.0298 40.7299 13.8298 40.9299 13.5798 40.9299Z" fill="#F7941D"/>
<path d="M13.5798 43.73H4.75982C4.51982 43.73 4.31982 43.53 4.31982 43.29V42.68C4.31982 42.44 4.51982 42.24 4.75982 42.24H13.5798C13.8198 42.24 14.0198 42.44 14.0198 42.68V43.29C14.0298 43.53 13.8298 43.73 13.5798 43.73Z" fill="#FEFEFE"/>
<path d="M9.68998 46.53H4.66998C4.42998 46.53 4.22998 46.33 4.22998 46.09V45.48C4.22998 45.24 4.42998 45.04 4.66998 45.04H9.69998C9.93998 45.04 10.14 45.24 10.14 45.48V46.09C10.14 46.33 9.93998 46.53 9.68998 46.53Z" fill="#F7941D"/>
<path d="M9.16973 35.0201C11.9035 35.0201 14.1197 32.8039 14.1197 30.0701C14.1197 27.3363 11.9035 25.1201 9.16973 25.1201C6.43592 25.1201 4.21973 27.3363 4.21973 30.0701C4.21973 32.8039 6.43592 35.0201 9.16973 35.0201Z" fill="#FEFEFE"/>
<path d="M26.1301 38.1299H17.3101C17.0701 38.1299 16.8701 37.9299 16.8701 37.6899V37.0799C16.8701 36.8399 17.0701 36.6399 17.3101 36.6399H26.1301C26.3701 36.6399 26.5701 36.8399 26.5701 37.0799V37.6899C26.5701 37.9299 26.3701 38.1299 26.1301 38.1299Z" fill="#FEFEFE"/>
<path d="M26.1301 40.9299H17.3101C17.0701 40.9299 16.8701 40.7299 16.8701 40.4899V39.8799C16.8701 39.6399 17.0701 39.4399 17.3101 39.4399H26.1301C26.3701 39.4399 26.5701 39.6399 26.5701 39.8799V40.4899C26.5701 40.7299 26.3701 40.9299 26.1301 40.9299Z" fill="#F7941D"/>
<path d="M26.1301 43.73H17.3101C17.0701 43.73 16.8701 43.53 16.8701 43.29V42.68C16.8701 42.44 17.0701 42.24 17.3101 42.24H26.1301C26.3701 42.24 26.5701 42.44 26.5701 42.68V43.29C26.5701 43.53 26.3701 43.73 26.1301 43.73Z" fill="#FEFEFE"/>
<path d="M22.24 46.53H17.21C16.97 46.53 16.77 46.33 16.77 46.09V45.48C16.77 45.24 16.97 45.04 17.21 45.04H22.24C22.48 45.04 22.68 45.24 22.68 45.48V46.09C22.68 46.33 22.48 46.53 22.24 46.53Z" fill="#F7941D"/>
<path d="M21.72 35.0201C24.4538 35.0201 26.67 32.8039 26.67 30.0701C26.67 27.3363 24.4538 25.1201 21.72 25.1201C18.9862 25.1201 16.77 27.3363 16.77 30.0701C16.77 32.8039 18.9862 35.0201 21.72 35.0201Z" fill="#FEFEFE"/>
<path d="M38.6702 38.1299H29.8502C29.6102 38.1299 29.4102 37.9299 29.4102 37.6899V37.0799C29.4102 36.8399 29.6102 36.6399 29.8502 36.6399H38.6702C38.9102 36.6399 39.1102 36.8399 39.1102 37.0799V37.6899C39.1202 37.9299 38.9202 38.1299 38.6702 38.1299Z" fill="#FEFEFE"/>
<path d="M38.6702 40.9299H29.8502C29.6102 40.9299 29.4102 40.7299 29.4102 40.4899V39.8799C29.4102 39.6399 29.6102 39.4399 29.8502 39.4399H38.6702C38.9102 39.4399 39.1102 39.6399 39.1102 39.8799V40.4899C39.1202 40.7299 38.9202 40.9299 38.6702 40.9299Z" fill="#F7941D"/>
<path d="M38.6702 43.73H29.8502C29.6102 43.73 29.4102 43.53 29.4102 43.29V42.68C29.4102 42.44 29.6102 42.24 29.8502 42.24H38.6702C38.9102 42.24 39.1102 42.44 39.1102 42.68V43.29C39.1202 43.53 38.9202 43.73 38.6702 43.73Z" fill="#FEFEFE"/>
<path d="M34.2601 35.0201C36.9939 35.0201 39.2101 32.8039 39.2101 30.0701C39.2101 27.3363 36.9939 25.1201 34.2601 25.1201C31.5262 25.1201 29.3101 27.3363 29.3101 30.0701C29.3101 32.8039 31.5262 35.0201 34.2601 35.0201Z" fill="#FEFEFE"/>
<path d="M41.4299 15.3799H1.66992V22.0099H41.4299V15.3799Z" fill="#F7941D"/>
<path d="M41.4297 15.3799V42.2399" stroke="white" stroke-width="2" stroke-miterlimit="10" stroke-linecap="round" stroke-linejoin="round"/>
<path d="M3.96973 1H40.0297" stroke="white" stroke-width="2" stroke-miterlimit="10" stroke-linecap="round" stroke-linejoin="round"/>
<path d="M25.9999 55.5099H3.06992C2.29992 55.5099 1.66992 54.8799 1.66992 54.1099V15.3799" stroke="white" stroke-width="2" stroke-miterlimit="10" stroke-linecap="round" stroke-linejoin="round"/>
<path d="M23 4L23 12L23 4Z" stroke="#F7941D" stroke-width="0.5" stroke-miterlimit="10"/>
<path d="M19.1406 5.3125V11H18.0352L16.25 7.44141V11H15.1641V5.3125H16.2539L18.0547 8.91016V5.3125H19.1406Z" fill="white"/>
<path d="M14.332 7.71484V8.66406C14.332 9.0651 14.2826 9.41667 14.1836 9.71875C14.0872 10.0182 13.9492 10.2695 13.7695 10.4727C13.5924 10.6732 13.3776 10.8242 13.125 10.9258C12.875 11.0273 12.5977 11.0781 12.293 11.0781C11.9883 11.0781 11.7096 11.0273 11.457 10.9258C11.207 10.8242 10.9909 10.6732 10.8086 10.4727C10.6289 10.2695 10.4896 10.0182 10.3906 9.71875C10.2917 9.41667 10.2422 9.0651 10.2422 8.66406V7.71484C10.2422 7.30339 10.2904 6.94401 10.3867 6.63672C10.4831 6.32682 10.6224 6.06901 10.8047 5.86328C10.987 5.65495 11.2031 5.4987 11.4531 5.39453C11.7031 5.28776 11.9805 5.23438 12.2852 5.23438C12.5898 5.23438 12.8672 5.28776 13.1172 5.39453C13.3672 5.4987 13.5833 5.65495 13.7656 5.86328C13.9479 6.06901 14.0872 6.32682 14.1836 6.63672C14.2826 6.94401 14.332 7.30339 14.332 7.71484ZM13.1953 8.66406V7.70703C13.1953 7.4362 13.1758 7.20573 13.1367 7.01562C13.0977 6.82292 13.0391 6.66536 12.9609 6.54297C12.8828 6.42057 12.7878 6.33073 12.6758 6.27344C12.5638 6.21615 12.4336 6.1875 12.2852 6.1875C12.1367 6.1875 12.0052 6.21615 11.8906 6.27344C11.7786 6.33073 11.6836 6.42057 11.6055 6.54297C11.5299 6.66536 11.4727 6.82292 11.4336 7.01562C11.3971 7.20573 11.3789 7.4362 11.3789 7.70703V8.66406C11.3789 8.92448 11.3984 9.14714 11.4375 9.33203C11.4766 9.51693 11.5352 9.66797 11.6133 9.78516C11.6914 9.90234 11.7865 9.98958 11.8984 10.0469C12.013 10.1016 12.1445 10.1289 12.293 10.1289C12.4388 10.1289 12.5677 10.1016 12.6797 10.0469C12.7943 9.98958 12.8893 9.90234 12.9648 9.78516C13.0404 9.66797 13.0977 9.51693 13.1367 9.33203C13.1758 9.14714 13.1953 8.92448 13.1953 8.66406Z" fill="white"/>
<path d="M9.72266 10.0547V11H6.33984V10.0547H9.72266ZM9.67969 5.98047L6.83594 11H6.03906V10.3086L8.91406 5.3125H9.67969V5.98047ZM9.29297 5.3125V6.26172H6.01562V5.3125H9.29297Z" fill="white"/>
<path d="M5.45703 7.71484V8.66406C5.45703 9.0651 5.40755 9.41667 5.30859 9.71875C5.21224 10.0182 5.07422 10.2695 4.89453 10.4727C4.71745 10.6732 4.5026 10.8242 4.25 10.9258C4 11.0273 3.72266 11.0781 3.41797 11.0781C3.11328 11.0781 2.83464 11.0273 2.58203 10.9258C2.33203 10.8242 2.11589 10.6732 1.93359 10.4727C1.75391 10.2695 1.61458 10.0182 1.51562 9.71875C1.41667 9.41667 1.36719 9.0651 1.36719 8.66406V7.71484C1.36719 7.30339 1.41536 6.94401 1.51172 6.63672C1.60807 6.32682 1.7474 6.06901 1.92969 5.86328C2.11198 5.65495 2.32812 5.4987 2.57812 5.39453C2.82812 5.28776 3.10547 5.23438 3.41016 5.23438C3.71484 5.23438 3.99219 5.28776 4.24219 5.39453C4.49219 5.4987 4.70833 5.65495 4.89062 5.86328C5.07292 6.06901 5.21224 6.32682 5.30859 6.63672C5.40755 6.94401 5.45703 7.30339 5.45703 7.71484ZM4.32031 8.66406V7.70703C4.32031 7.4362 4.30078 7.20573 4.26172 7.01562C4.22266 6.82292 4.16406 6.66536 4.08594 6.54297C4.00781 6.42057 3.91276 6.33073 3.80078 6.27344C3.6888 6.21615 3.55859 6.1875 3.41016 6.1875C3.26172 6.1875 3.13021 6.21615 3.01562 6.27344C2.90365 6.33073 2.80859 6.42057 2.73047 6.54297C2.65495 6.66536 2.59766 6.82292 2.55859 7.01562C2.52214 7.20573 2.50391 7.4362 2.50391 7.70703V8.66406C2.50391 8.92448 2.52344 9.14714 2.5625 9.33203C2.60156 9.51693 2.66016 9.66797 2.73828 9.78516C2.81641 9.90234 2.91146 9.98958 3.02344 10.0469C3.13802 10.1016 3.26953 10.1289 3.41797 10.1289C3.5638 10.1289 3.69271 10.1016 3.80469 10.0469C3.91927 9.98958 4.01432 9.90234 4.08984 9.78516C4.16536 9.66797 4.22266 9.51693 4.26172 9.33203C4.30078 9.14714 4.32031 8.92448 4.32031 8.66406Z" fill="white"/>
<path d="M36.3828 8.51953H35.2148L35.2109 7.69141H36.2031C36.3594 7.69141 36.487 7.66536 36.5859 7.61328C36.6875 7.55859 36.7617 7.47917 36.8086 7.375C36.8581 7.26823 36.8828 7.13932 36.8828 6.98828C36.8828 6.8138 36.8594 6.67448 36.8125 6.57031C36.7682 6.46354 36.6966 6.38542 36.5977 6.33594C36.5013 6.28646 36.3737 6.26172 36.2148 6.26172H35.6055V11H34.4609V5.3125H36.2148C36.4961 5.3125 36.7487 5.34375 36.9727 5.40625C37.1966 5.46875 37.3867 5.5651 37.543 5.69531C37.6992 5.82292 37.819 5.98438 37.9023 6.17969C37.9857 6.3724 38.0273 6.60156 38.0273 6.86719C38.0273 7.10156 37.9805 7.31771 37.8867 7.51562C37.793 7.71354 37.6458 7.8763 37.4453 8.00391C37.2448 8.12891 36.9857 8.19792 36.668 8.21094L36.3828 8.51953ZM36.3398 11H34.8906L35.3477 10.0547H36.3398C36.4935 10.0547 36.6159 10.0221 36.707 9.95703C36.7982 9.89193 36.8646 9.80469 36.9062 9.69531C36.9505 9.58333 36.9727 9.45573 36.9727 9.3125C36.9727 9.15104 36.9531 9.01042 36.9141 8.89062C36.8776 8.77083 36.8164 8.67969 36.7305 8.61719C36.6445 8.55208 36.5286 8.51953 36.3828 8.51953H35.3984L35.4062 7.69141H36.6016L36.8711 8.01953C37.1758 8.00911 37.4193 8.06771 37.6016 8.19531C37.7839 8.32031 37.9141 8.48438 37.9922 8.6875C38.0729 8.88802 38.1133 9.10156 38.1133 9.32812C38.1133 9.69271 38.0443 10 37.9062 10.25C37.7708 10.4974 37.5716 10.6849 37.3086 10.8125C37.0456 10.9375 36.7227 11 36.3398 11Z" fill="#F7941D"/>
<path d="M29.6211 10.1484L30.5312 5.3125H31.1328L31.3125 6.0625L30.3359 11H29.6836L29.6211 10.1484ZM29.3086 5.3125L30.043 10.1602L29.918 11H29.1992L28.1797 5.3125H29.3086ZM31.9727 10.1406L32.7031 5.3125H33.8281L32.8164 11H32.0938L31.9727 10.1406ZM31.4805 5.3125L32.3984 10.1758L32.3242 11H31.6719L30.6992 6.05469L30.8828 5.3125H31.4805Z" fill="#F7941D"/>
</svg>
