<svg width="48" height="70" viewBox="0 0 48 70" fill="none" xmlns="http://www.w3.org/2000/svg">
<g clip-path="url(#clip0_8258_14356)">
<path d="M34.16 3.25H39.87C43.5 3.25 46.44 6.19 46.44 9.82V32.03C46.44 35.66 43.5 38.6 39.87 38.6H5.48C3.28 38.6 1.5 36.82 1.5 34.62" stroke="white" stroke-width="2" stroke-linecap="round" stroke-linejoin="round"/>
<path d="M1.5 34.61V9.82C1.5 6.19 4.44 3.25 8.07 3.25H14.62" stroke="white" stroke-width="2" stroke-linecap="round" stroke-linejoin="round"/>
<path d="M29.4097 57.3901H1.89969C1.2259 57.3901 0.679688 57.9364 0.679688 58.6101V68.0201C0.679688 68.6939 1.2259 69.2401 1.89969 69.2401H29.4097C30.0835 69.2401 30.6297 68.6939 30.6297 68.0201V58.6101C30.6297 57.9364 30.0835 57.3901 29.4097 57.3901Z" fill="white"/>
<path d="M1.5 44.79H16.8" stroke="white" stroke-width="3" stroke-linecap="round" stroke-linejoin="round"/>
<path d="M1.5 50.8398H23.41" stroke="white" stroke-width="3" stroke-linecap="round" stroke-linejoin="round"/>
<path d="M1.58008 35.3798C3.51008 33.2498 5.99008 30.5698 7.83008 28.5998C9.22008 27.1098 11.5901 27.1198 12.9701 28.6198L15.8201 31.7198C17.1801 33.1998 19.5001 33.2298 20.9001 31.7998L28.1901 24.3298C29.5401 22.9498 31.7401 22.9198 33.1301 24.2598L45.2401 35.9598L42.3801 38.0998L36.2601 38.5998H5.48008L3.55008 38.0998L1.58008 35.3898V35.3798Z" fill="white"/>
<path d="M35.5299 18.6398C38.2361 18.6398 40.4299 16.446 40.4299 13.7398C40.4299 11.0336 38.2361 8.83984 35.5299 8.83984C32.8237 8.83984 30.6299 11.0336 30.6299 13.7398C30.6299 16.446 32.8237 18.6398 35.5299 18.6398Z" fill="#F7941D"/>
<path d="M6.41016 64.4802V62.1802H7.27016C7.50016 62.1802 7.68016 62.2302 7.82016 62.3302C7.96016 62.4302 8.03016 62.5702 8.03016 62.7702C8.03016 62.8402 8.01016 62.9102 7.98016 62.9702C7.95016 63.0302 7.91016 63.0902 7.86016 63.1302C7.81016 63.1802 7.75016 63.2102 7.69016 63.2402C7.81016 63.2802 7.92016 63.3502 7.99016 63.4602C8.07016 63.5602 8.11016 63.6802 8.11016 63.8302C8.11016 63.9602 8.08016 64.0802 8.01016 64.1802C7.94016 64.2802 7.85016 64.3602 7.73016 64.4102C7.61016 64.4602 7.46016 64.4902 7.29016 64.4902H6.41016V64.4802ZM6.90016 63.1402H7.20016C7.27016 63.1402 7.34016 63.1302 7.39016 63.1002C7.44016 63.0802 7.48016 63.0402 7.51016 63.0002C7.54016 62.9502 7.55016 62.9002 7.55016 62.8402C7.55016 62.7502 7.52016 62.6802 7.46016 62.6302C7.40016 62.5802 7.31016 62.5602 7.19016 62.5602H6.90016V63.1502V63.1402ZM6.90016 64.1202H7.22016C7.35016 64.1202 7.45016 64.0902 7.51016 64.0402C7.58016 63.9902 7.61016 63.9102 7.61016 63.8002C7.61016 63.6902 7.58016 63.6202 7.51016 63.5602C7.45016 63.5002 7.35016 63.4802 7.22016 63.4802H6.89016V64.1202H6.90016Z" fill="black"/>
<path d="M9.32031 64.4802V62.1802H9.81031V63.0502H10.2403V63.5002H9.81031V64.4802H9.32031ZM10.7403 64.4802L9.81031 63.2802L10.6503 62.1802H11.2503L10.4003 63.2802L11.3703 64.4802H10.7403Z" fill="black"/>
<path d="M12.7603 64.5299C12.5803 64.5299 12.4203 64.4999 12.2703 64.4399C12.1203 64.3799 11.9903 64.2899 11.8803 64.1899C11.7703 64.0799 11.6803 63.9499 11.6203 63.8099C11.5603 63.6599 11.5303 63.5099 11.5303 63.3399C11.5303 63.1699 11.5603 63.0099 11.6203 62.8699C11.6803 62.7199 11.7703 62.5999 11.8803 62.4899C11.9903 62.3799 12.1203 62.2999 12.2703 62.2399C12.4203 62.1799 12.5803 62.1499 12.7603 62.1499C12.9403 62.1499 13.1003 62.1799 13.2503 62.2399C13.4003 62.2999 13.5303 62.3899 13.6403 62.4999C13.7503 62.6099 13.8403 62.7399 13.9003 62.8799C13.9603 63.0199 13.9903 63.1799 13.9903 63.3499C13.9903 63.5199 13.9603 63.6799 13.9003 63.8199C13.8403 63.9699 13.7503 64.0899 13.6403 64.1999C13.5303 64.3099 13.4003 64.3899 13.2503 64.4499C13.1003 64.5099 12.9403 64.5399 12.7603 64.5399V64.5299ZM12.7603 64.0699C12.8603 64.0699 12.9603 64.0499 13.0403 64.0199C13.1303 63.9799 13.2003 63.9299 13.2703 63.8699C13.3303 63.8099 13.3803 63.7299 13.4203 63.6399C13.4603 63.5499 13.4703 63.4499 13.4703 63.3299C13.4703 63.1799 13.4403 63.0499 13.3803 62.9399C13.3203 62.8299 13.2303 62.7399 13.1303 62.6799C13.0203 62.6199 12.9003 62.5899 12.7703 62.5899C12.6703 62.5899 12.5803 62.6099 12.4903 62.6399C12.4003 62.6699 12.3303 62.7199 12.2603 62.7899C12.2003 62.8599 12.1503 62.9299 12.1103 63.0199C12.0703 63.1099 12.0603 63.2099 12.0603 63.3299C12.0603 63.4799 12.0903 63.6099 12.1503 63.7199C12.2103 63.8299 12.3003 63.9199 12.4003 63.9799C12.5003 64.0399 12.6303 64.0699 12.7603 64.0699Z" fill="black"/>
<path d="M14.4004 64.4802V62.1802H15.2904C15.4604 62.1802 15.6104 62.2102 15.7404 62.2702C15.8704 62.3302 15.9704 62.4102 16.0504 62.5202C16.1204 62.6302 16.1604 62.7702 16.1604 62.9202C16.1604 63.0702 16.1304 63.2102 16.0604 63.3202C15.9904 63.4302 15.8904 63.5102 15.7604 63.5702C15.6304 63.6302 15.4704 63.6602 15.2804 63.6602H14.8904V64.4802H14.4004ZM14.8904 63.2502H15.2804C15.4104 63.2502 15.5004 63.2202 15.5804 63.1702C15.6504 63.1202 15.6904 63.0402 15.6904 62.9202C15.6904 62.8002 15.6504 62.7202 15.5804 62.6702C15.5104 62.6202 15.4104 62.5902 15.2904 62.5902H14.9004V63.2402L14.8904 63.2502Z" fill="black"/>
<path d="M17.2301 64.5301C17.0501 64.5301 16.8801 64.5101 16.7301 64.4601C16.5801 64.4201 16.4501 64.3501 16.3301 64.2601L16.5501 63.8801C16.6301 63.9501 16.7201 64.0001 16.8301 64.0401C16.9401 64.0801 17.0601 64.1001 17.1801 64.1001C17.2801 64.1001 17.3601 64.0901 17.4401 64.0601C17.5101 64.0301 17.5701 64.0001 17.6101 63.9501C17.6501 63.9001 17.6701 63.8501 17.6701 63.7801C17.6701 63.6801 17.6401 63.6101 17.5701 63.5601C17.5001 63.5101 17.4001 63.4801 17.2501 63.4801H16.7901V63.1001H17.2101C17.2901 63.1001 17.3601 63.0901 17.4201 63.0701C17.4801 63.0501 17.5201 63.0201 17.5501 62.9801C17.5801 62.9401 17.6001 62.8901 17.6001 62.8301C17.6001 62.7701 17.5801 62.7301 17.5501 62.6901C17.5201 62.6501 17.4701 62.6201 17.4101 62.6001C17.3501 62.5801 17.2701 62.5701 17.1801 62.5701C17.0801 62.5701 16.9701 62.5901 16.8801 62.6201C16.7801 62.6501 16.7001 62.7001 16.6301 62.7601L16.4101 62.4001C16.5101 62.3101 16.6401 62.2401 16.7801 62.1901C16.9301 62.1401 17.0801 62.1201 17.2501 62.1201C17.4201 62.1201 17.5701 62.1401 17.6901 62.1901C17.8101 62.2401 17.9101 62.3101 17.9801 62.4001C18.0501 62.4901 18.0801 62.6001 18.0801 62.7301C18.0801 62.8001 18.0701 62.8701 18.0401 62.9301C18.0101 62.9901 17.9701 63.0501 17.9201 63.1001C17.8701 63.1501 17.8101 63.1901 17.7501 63.2201C17.8801 63.2601 17.9801 63.3301 18.0601 63.4301C18.1401 63.5301 18.1701 63.6501 18.1701 63.7901C18.1701 63.9301 18.1301 64.0501 18.0501 64.1601C17.9701 64.2701 17.8601 64.3601 17.7201 64.4201C17.5801 64.4801 17.4201 64.5101 17.2301 64.5101V64.5301Z" fill="black"/>
<path d="M18.5898 64.4802V62.1802H19.0698V63.7102L20.0798 62.1802H20.5598V64.4802H20.0798V62.9402L19.0698 64.4802H18.5898Z" fill="black"/>
<path d="M21.1201 64.4802V62.1802H21.6101V63.0502H22.5901V62.1802H23.0801V64.4802H22.5901V63.5002H21.6101V64.4802H21.1201Z" fill="black"/>
<path d="M24.34 63.8099L23.46 62.1799H24.05L24.67 63.3999L24.34 63.8099ZM23.71 64.5199L23.53 64.0799C23.67 64.0499 23.79 64.0099 23.9 63.9499C24.01 63.8899 24.1 63.8099 24.19 63.7099C24.27 63.6099 24.35 63.4799 24.42 63.3299L24.97 62.1699H25.53L24.85 63.5199C24.77 63.6799 24.69 63.8199 24.6 63.9399C24.52 64.0599 24.43 64.1499 24.34 64.2299C24.25 64.3099 24.15 64.3699 24.04 64.4099C23.94 64.4499 23.82 64.4899 23.7 64.4999L23.71 64.5199Z" fill="black"/>
<path d="M15.8698 22.49C16.0798 21.67 16.2998 20.92 16.4798 20.16C16.7798 18.9 16.9098 17.64 16.5898 16.36C16.5098 16.03 16.3798 16.03 16.1398 16.22C14.6398 17.43 13.1398 18.63 11.6498 19.84C10.2698 20.96 8.8898 22.08 7.5098 23.2C7.4798 23.22 7.4398 23.23 7.2998 23.28C9.7198 20.26 12.0798 17.32 14.5298 14.27C13.2898 14.08 12.1898 14.08 11.0998 14.22C10.0198 14.36 8.9498 14.64 7.7898 14.78C8.0498 14.38 8.3098 13.97 8.5698 13.57C9.3398 12.41 10.1298 11.25 10.8898 10.08C11.0598 9.82 11.2398 9.74 11.5298 9.75C12.7098 9.78 13.8898 9.78 15.0698 9.82C15.4898 9.83 15.7798 9.69 16.0698 9.4C18.6498 6.81 21.2398 4.22 23.8498 1.65C24.1098 1.39 24.4998 1.19 24.8598 1.11C26.5898 0.73 28.3298 0.4 30.0698 0.05C30.2298 0.02 30.3898 0.02 30.6198 0C30.5098 0.64 30.4098 1.25 30.2898 1.85C30.0198 3.23 29.7498 4.62 29.4498 5.99C29.3998 6.21 29.2498 6.44 29.0898 6.61C26.4698 9.24 23.8298 11.87 21.1898 14.48C20.8998 14.77 20.7698 15.07 20.7798 15.48C20.7798 16.66 20.7798 17.84 20.7298 19.02C20.7298 19.22 20.5998 19.48 20.4398 19.59C18.9798 20.55 17.4998 21.48 16.0198 22.41C15.9898 22.43 15.9398 22.44 15.8598 22.48L15.8698 22.49Z" fill="#F7941D"/>
</g>
<defs>
<clipPath id="clip0_8258_14356">
<rect width="47.43" height="69.24" fill="white"/>
</clipPath>
</defs>
</svg>
