<svg width="48" height="66" viewBox="0 0 48 66" fill="none" xmlns="http://www.w3.org/2000/svg">
<g clip-path="url(#clip0_7941_14461)">
<path d="M16.0942 1.4082L14.1074 9H12.146L15.0342 -0.242188H16.2593L16.0942 1.4082ZM17.6621 9L15.6626 1.4082L15.4785 -0.242188H16.7227L19.6362 9H17.6621ZM17.7319 5.55322V7.0957H13.5615V5.55322H17.7319ZM24.0415 2.13184H25.6538V9C25.6538 9.6263 25.5332 10.1383 25.292 10.5361C25.055 10.9382 24.7228 11.2323 24.2954 11.4185C23.8722 11.6089 23.3771 11.7041 22.8101 11.7041C22.5942 11.7041 22.3509 11.6745 22.0801 11.6152C21.8135 11.556 21.5553 11.465 21.3057 11.3423C21.056 11.2238 20.8507 11.0799 20.6899 10.9106L21.293 9.6792C21.458 9.84424 21.6738 9.98389 21.9404 10.0981C22.207 10.2166 22.4694 10.2759 22.7275 10.2759C22.9772 10.2759 23.1846 10.2357 23.3496 10.1553C23.5189 10.0791 23.6458 9.94792 23.7305 9.76172C23.8193 9.57552 23.8638 9.32585 23.8638 9.0127V3.7251L24.0415 2.13184ZM20.2075 5.80713V5.3501C20.2075 4.7915 20.2604 4.30273 20.3662 3.88379C20.472 3.46484 20.6243 3.11572 20.8232 2.83643C21.0221 2.55713 21.2655 2.34977 21.5532 2.21436C21.8452 2.07471 22.1711 2.00488 22.5308 2.00488C22.9074 2.00488 23.2227 2.0874 23.4766 2.25244C23.7305 2.41325 23.9357 2.63965 24.0923 2.93164C24.2531 3.22363 24.3758 3.56852 24.4604 3.96631C24.5493 4.3641 24.617 4.79997 24.6636 5.27393V5.93408C24.617 6.38265 24.5409 6.8016 24.4351 7.19092C24.3335 7.58024 24.1981 7.91878 24.0288 8.20654C23.8595 8.4943 23.6522 8.7207 23.4067 8.88574C23.1613 9.04655 22.8651 9.12695 22.5181 9.12695C22.1626 9.12695 21.841 9.05501 21.5532 8.91113C21.2697 8.76725 21.0264 8.55566 20.8232 8.27637C20.6243 7.99284 20.472 7.64583 20.3662 7.23535C20.2604 6.82064 20.2075 6.34456 20.2075 5.80713ZM21.9912 5.3501V5.80713C21.9912 6.12874 22.0103 6.40592 22.0483 6.63867C22.0907 6.86719 22.1541 7.0555 22.2388 7.20361C22.3234 7.34749 22.4313 7.4554 22.5625 7.52734C22.6979 7.59505 22.8566 7.62891 23.0386 7.62891C23.2967 7.62891 23.502 7.56966 23.6543 7.45117C23.8109 7.32845 23.9251 7.1613 23.9971 6.94971C24.0732 6.73389 24.1156 6.48633 24.124 6.20703V5.00732C24.1198 4.77458 24.0923 4.5651 24.0415 4.37891C23.995 4.19271 23.9294 4.03402 23.8447 3.90283C23.7601 3.77165 23.6501 3.67008 23.5146 3.59814C23.3835 3.5262 23.229 3.49023 23.0513 3.49023C22.8693 3.49023 22.7127 3.5262 22.5815 3.59814C22.4504 3.67008 22.3403 3.78223 22.2515 3.93457C22.1668 4.08268 22.1012 4.27523 22.0547 4.51221C22.0124 4.74495 21.9912 5.02425 21.9912 5.3501ZM28.7578 3.66162V9H26.9805V2.13184H28.6562L28.7578 3.66162ZM30.3765 2.08105L30.3511 3.85205C30.2707 3.83512 30.1733 3.82243 30.0591 3.81396C29.9491 3.8055 29.8517 3.80127 29.7671 3.80127C29.5682 3.80127 29.3989 3.83301 29.2593 3.89648C29.1196 3.95573 29.0033 4.04671 28.9102 4.16943C28.8213 4.28792 28.7536 4.43604 28.707 4.61377C28.6605 4.7915 28.633 4.99251 28.6245 5.2168L28.2881 5.08984C28.2881 4.64128 28.3219 4.23079 28.3896 3.8584C28.4616 3.48177 28.5674 3.15592 28.707 2.88086C28.8467 2.60156 29.0138 2.38574 29.2085 2.2334C29.4074 2.08105 29.6317 2.00488 29.8813 2.00488C29.966 2.00488 30.0549 2.01335 30.1479 2.03027C30.2453 2.04297 30.3215 2.0599 30.3765 2.08105ZM30.8525 5.80078V5.3374C30.8525 4.79997 30.916 4.32389 31.043 3.90918C31.1742 3.49447 31.3604 3.14746 31.6016 2.86816C31.8428 2.58464 32.1326 2.37093 32.4712 2.22705C32.814 2.07894 33.1969 2.00488 33.6201 2.00488C34.0475 2.00488 34.4305 2.07894 34.769 2.22705C35.1118 2.37093 35.4038 2.58464 35.645 2.86816C35.8905 3.14746 36.0788 3.49447 36.21 3.90918C36.3411 4.32389 36.4067 4.79997 36.4067 5.3374V5.80078C36.4067 6.33398 36.3411 6.80794 36.21 7.22266C36.0788 7.63737 35.8905 7.98649 35.645 8.27002C35.4038 8.55355 35.1139 8.76725 34.7754 8.91113C34.4368 9.05501 34.056 9.12695 33.6328 9.12695C33.2096 9.12695 32.8267 9.05501 32.4839 8.91113C32.1453 8.76725 31.8534 8.55355 31.6079 8.27002C31.3625 7.98649 31.1742 7.63737 31.043 7.22266C30.916 6.80794 30.8525 6.33398 30.8525 5.80078ZM32.6299 5.3374V5.80078C32.6299 6.11816 32.651 6.39323 32.6934 6.62598C32.7399 6.85872 32.8055 7.05127 32.8901 7.20361C32.979 7.35596 33.0848 7.4681 33.2075 7.54004C33.3302 7.61198 33.472 7.64795 33.6328 7.64795C33.7936 7.64795 33.9375 7.61198 34.0645 7.54004C34.1914 7.4681 34.2951 7.35596 34.3755 7.20361C34.4601 7.05127 34.5215 6.85872 34.5596 6.62598C34.6019 6.39323 34.623 6.11816 34.623 5.80078V5.3374C34.623 5.02848 34.5998 4.75765 34.5532 4.5249C34.5067 4.28792 34.4411 4.09538 34.3564 3.94727C34.2718 3.79492 34.166 3.68066 34.0391 3.60449C33.9163 3.52409 33.7767 3.48389 33.6201 3.48389C33.4635 3.48389 33.3239 3.52409 33.2012 3.60449C33.0827 3.68066 32.979 3.79492 32.8901 3.94727C32.8055 4.09538 32.7399 4.28792 32.6934 4.5249C32.651 4.75765 32.6299 5.02848 32.6299 5.3374ZM39.3076 3.66162V9H37.5303V2.13184H39.2061L39.3076 3.66162ZM40.9263 2.08105L40.9009 3.85205C40.8205 3.83512 40.7231 3.82243 40.6089 3.81396C40.4989 3.8055 40.4015 3.80127 40.3169 3.80127C40.118 3.80127 39.9487 3.83301 39.8091 3.89648C39.6694 3.95573 39.5531 4.04671 39.46 4.16943C39.3711 4.28792 39.3034 4.43604 39.2568 4.61377C39.2103 4.7915 39.1828 4.99251 39.1743 5.2168L38.8379 5.08984C38.8379 4.64128 38.8717 4.23079 38.9395 3.8584C39.0114 3.48177 39.1172 3.15592 39.2568 2.88086C39.3965 2.60156 39.5636 2.38574 39.7583 2.2334C39.9572 2.08105 40.1815 2.00488 40.4312 2.00488C40.5158 2.00488 40.6047 2.01335 40.6978 2.03027C40.7951 2.04297 40.8713 2.0599 40.9263 2.08105ZM45.1538 7.34961V2.13184H46.9375V9H45.2617L45.1538 7.34961ZM45.3569 5.93408L45.8521 5.92139C45.8521 6.38265 45.8076 6.81006 45.7188 7.20361C45.6299 7.59294 45.4966 7.93148 45.3188 8.21924C45.1453 8.507 44.9232 8.73128 44.6523 8.89209C44.3857 9.04867 44.0705 9.12695 43.7065 9.12695C43.4272 9.12695 43.1691 9.0804 42.9321 8.9873C42.6994 8.88997 42.4984 8.73975 42.3291 8.53662C42.1598 8.32926 42.0265 8.06478 41.9292 7.74316C41.8361 7.41732 41.7896 7.02799 41.7896 6.5752V2.13184H43.5732V6.58789C43.5732 6.77409 43.5881 6.9349 43.6177 7.07031C43.6515 7.2015 43.6981 7.30941 43.7573 7.39404C43.8208 7.47868 43.8927 7.54004 43.9731 7.57812C44.0535 7.61198 44.1445 7.62891 44.2461 7.62891C44.5254 7.62891 44.7454 7.55697 44.9062 7.41309C45.0713 7.26497 45.1877 7.06396 45.2554 6.81006C45.3231 6.55192 45.3569 6.25993 45.3569 5.93408Z" fill="white"/>
<path d="M10.8345 57.7441L9.45898 63H8.10107L10.1006 56.6016H10.9487L10.8345 57.7441ZM11.9199 63L10.5356 57.7441L10.4082 56.6016H11.2695L13.2866 63H11.9199ZM11.9683 60.6138V61.6816H9.08105V60.6138H11.9683ZM16.3364 58.2451H17.4526V63C17.4526 63.4336 17.3691 63.7881 17.2021 64.0635C17.0381 64.3418 16.8081 64.5454 16.5122 64.6743C16.2192 64.8062 15.8765 64.8721 15.4839 64.8721C15.3345 64.8721 15.166 64.8516 14.9785 64.8105C14.7939 64.7695 14.6152 64.7065 14.4424 64.6216C14.2695 64.5396 14.1274 64.4399 14.0161 64.3228L14.4336 63.4702C14.5479 63.5845 14.6973 63.6812 14.8818 63.7603C15.0664 63.8423 15.248 63.8833 15.4268 63.8833C15.5996 63.8833 15.7432 63.8555 15.8574 63.7998C15.9746 63.7471 16.0625 63.6562 16.1211 63.5273C16.1826 63.3984 16.2134 63.2256 16.2134 63.0088V59.3481L16.3364 58.2451ZM13.6821 60.7896V60.4731C13.6821 60.0864 13.7188 59.748 13.792 59.458C13.8652 59.168 13.9707 58.9263 14.1084 58.7329C14.2461 58.5396 14.4146 58.396 14.6138 58.3022C14.8159 58.2056 15.0415 58.1572 15.2905 58.1572C15.5513 58.1572 15.7695 58.2144 15.9453 58.3286C16.1211 58.4399 16.2632 58.5967 16.3716 58.7988C16.4829 59.001 16.5679 59.2397 16.6265 59.5151C16.688 59.7905 16.7349 60.0923 16.7671 60.4204V60.8774C16.7349 61.188 16.6821 61.478 16.6089 61.7476C16.5386 62.0171 16.4448 62.2515 16.3276 62.4507C16.2104 62.6499 16.0669 62.8066 15.897 62.9209C15.7271 63.0322 15.522 63.0879 15.2817 63.0879C15.0356 63.0879 14.813 63.0381 14.6138 62.9385C14.4175 62.8389 14.249 62.6924 14.1084 62.499C13.9707 62.3027 13.8652 62.0625 13.792 61.7783C13.7188 61.4912 13.6821 61.1616 13.6821 60.7896ZM14.917 60.4731V60.7896C14.917 61.0122 14.9302 61.2041 14.9565 61.3652C14.9858 61.5234 15.0298 61.6538 15.0884 61.7563C15.147 61.856 15.2217 61.9307 15.3125 61.9805C15.4062 62.0273 15.5161 62.0508 15.6421 62.0508C15.8208 62.0508 15.9629 62.0098 16.0684 61.9277C16.1768 61.8428 16.2559 61.7271 16.3057 61.5806C16.3584 61.4312 16.3877 61.2598 16.3936 61.0664V60.2358C16.3906 60.0747 16.3716 59.9297 16.3364 59.8008C16.3042 59.6719 16.2588 59.562 16.2002 59.4712C16.1416 59.3804 16.0654 59.3101 15.9717 59.2603C15.8809 59.2104 15.7739 59.1855 15.6509 59.1855C15.5249 59.1855 15.4165 59.2104 15.3257 59.2603C15.2349 59.3101 15.1587 59.3877 15.0972 59.4932C15.0386 59.5957 14.9932 59.729 14.9609 59.8931C14.9316 60.0542 14.917 60.2476 14.917 60.4731ZM19.6016 59.3042V63H18.3711V58.2451H19.5312L19.6016 59.3042ZM20.7222 58.21L20.7046 59.436C20.6489 59.4243 20.5815 59.4155 20.5024 59.4097C20.4263 59.4038 20.3589 59.4009 20.3003 59.4009C20.1626 59.4009 20.0454 59.4229 19.9487 59.4668C19.8521 59.5078 19.7715 59.5708 19.707 59.6558C19.6455 59.7378 19.5986 59.8403 19.5664 59.9634C19.5342 60.0864 19.5151 60.2256 19.5093 60.3809L19.2764 60.293C19.2764 59.9824 19.2998 59.6982 19.3467 59.4404C19.3965 59.1797 19.4697 58.9541 19.5664 58.7637C19.6631 58.5703 19.7788 58.4209 19.9136 58.3154C20.0513 58.21 20.2065 58.1572 20.3794 58.1572C20.438 58.1572 20.4995 58.1631 20.564 58.1748C20.6313 58.1836 20.6841 58.1953 20.7222 58.21ZM21.0518 60.7852V60.4644C21.0518 60.0923 21.0957 59.7627 21.1836 59.4756C21.2744 59.1885 21.4033 58.9482 21.5703 58.7549C21.7373 58.5586 21.938 58.4106 22.1724 58.311C22.4097 58.2085 22.6748 58.1572 22.9678 58.1572C23.2637 58.1572 23.5288 58.2085 23.7632 58.311C24.0005 58.4106 24.2026 58.5586 24.3696 58.7549C24.5396 58.9482 24.6699 59.1885 24.7607 59.4756C24.8516 59.7627 24.897 60.0923 24.897 60.4644V60.7852C24.897 61.1543 24.8516 61.4824 24.7607 61.7695C24.6699 62.0566 24.5396 62.2983 24.3696 62.4946C24.2026 62.6909 24.002 62.8389 23.7676 62.9385C23.5332 63.0381 23.2695 63.0879 22.9766 63.0879C22.6836 63.0879 22.4185 63.0381 22.1812 62.9385C21.9468 62.8389 21.7446 62.6909 21.5747 62.4946C21.4048 62.2983 21.2744 62.0566 21.1836 61.7695C21.0957 61.4824 21.0518 61.1543 21.0518 60.7852ZM22.2822 60.4644V60.7852C22.2822 61.0049 22.2969 61.1953 22.3262 61.3564C22.3584 61.5176 22.4038 61.6509 22.4624 61.7563C22.5239 61.8618 22.5972 61.9395 22.6821 61.9893C22.7671 62.0391 22.8652 62.064 22.9766 62.064C23.0879 62.064 23.1875 62.0391 23.2754 61.9893C23.3633 61.9395 23.4351 61.8618 23.4907 61.7563C23.5493 61.6509 23.5918 61.5176 23.6182 61.3564C23.6475 61.1953 23.6621 61.0049 23.6621 60.7852V60.4644C23.6621 60.2505 23.646 60.063 23.6138 59.9019C23.5815 59.7378 23.5361 59.6045 23.4775 59.502C23.4189 59.3965 23.3457 59.3174 23.2578 59.2646C23.1729 59.209 23.0762 59.1812 22.9678 59.1812C22.8594 59.1812 22.7627 59.209 22.6777 59.2646C22.5957 59.3174 22.5239 59.3965 22.4624 59.502C22.4038 59.6045 22.3584 59.7378 22.3262 59.9019C22.2969 60.063 22.2822 60.2505 22.2822 60.4644ZM27.7842 61.7168C27.7842 61.6348 27.7563 61.5615 27.7007 61.4971C27.645 61.4326 27.5571 61.3667 27.437 61.2993C27.3169 61.229 27.1572 61.1514 26.958 61.0664C26.7412 60.9785 26.5493 60.8877 26.3823 60.7939C26.2153 60.7002 26.0732 60.5962 25.9561 60.4819C25.8418 60.3677 25.7554 60.2373 25.6968 60.0908C25.6382 59.9443 25.6089 59.7773 25.6089 59.5898C25.6089 59.3877 25.6455 59.2017 25.7188 59.0317C25.7949 58.8589 25.9033 58.708 26.0439 58.5791C26.1846 58.4473 26.356 58.3447 26.5581 58.2715C26.7632 58.1953 26.9932 58.1572 27.248 58.1572C27.6055 58.1572 27.9116 58.2202 28.1665 58.3462C28.4243 58.4692 28.6221 58.6421 28.7598 58.8647C28.8975 59.0874 28.9663 59.3467 28.9663 59.6426H27.7358C27.7358 59.5371 27.7197 59.4434 27.6875 59.3613C27.6553 59.2764 27.6025 59.2104 27.5293 59.1636C27.459 59.1167 27.3638 59.0933 27.2437 59.0933C27.1558 59.0933 27.0767 59.1123 27.0063 59.1504C26.939 59.1885 26.8848 59.2397 26.8438 59.3042C26.8057 59.3657 26.7866 59.439 26.7866 59.5239C26.7866 59.5884 26.7998 59.6455 26.8262 59.6953C26.8555 59.7451 26.9009 59.7935 26.9624 59.8403C27.0239 59.8872 27.106 59.937 27.2085 59.9897C27.314 60.0396 27.4429 60.0952 27.5952 60.1567C27.9116 60.2739 28.1709 60.3999 28.373 60.5347C28.5781 60.6694 28.7305 60.8276 28.8301 61.0093C28.9297 61.188 28.9795 61.4092 28.9795 61.6729C28.9795 61.8838 28.9385 62.0757 28.8564 62.2485C28.7773 62.4214 28.6616 62.5708 28.5093 62.6968C28.3569 62.8228 28.1738 62.9194 27.96 62.9868C27.749 63.0542 27.5132 63.0879 27.2524 63.0879C26.8687 63.0879 26.5449 63.0117 26.2812 62.8594C26.0176 62.707 25.8184 62.5122 25.6836 62.2749C25.5488 62.0347 25.4814 61.7856 25.4814 61.5278H26.6504C26.6562 61.686 26.6855 61.8105 26.7383 61.9014C26.7939 61.9893 26.8687 62.0508 26.9624 62.0859C27.0562 62.1211 27.1602 62.1387 27.2744 62.1387C27.3887 62.1387 27.4824 62.124 27.5557 62.0947C27.6318 62.0625 27.689 62.0142 27.7271 61.9497C27.7651 61.8823 27.7842 61.8047 27.7842 61.7168ZM31.6777 63.0879C31.3525 63.0879 31.064 63.0381 30.812 62.9385C30.563 62.8389 30.3521 62.6953 30.1792 62.5078C30.0063 62.3174 29.8745 62.0874 29.7837 61.8179C29.6929 61.5483 29.6475 61.2407 29.6475 60.895V60.5039C29.6475 60.1172 29.6914 59.7788 29.7793 59.4888C29.8672 59.1958 29.9917 58.9497 30.1528 58.7505C30.314 58.5513 30.5117 58.4033 30.7461 58.3066C30.9834 58.207 31.2515 58.1572 31.5503 58.1572C31.8491 58.1572 32.1113 58.207 32.3369 58.3066C32.5654 58.4033 32.7544 58.5498 32.9038 58.7461C33.0532 58.9395 33.166 59.1797 33.2422 59.4668C33.3184 59.7539 33.3564 60.0879 33.3564 60.4688V61.0312H30.1704V60.1655H32.1479V60.0557C32.1479 59.8623 32.1274 59.7012 32.0864 59.5723C32.0454 59.4404 31.981 59.3423 31.8931 59.2778C31.8052 59.2134 31.688 59.1812 31.5415 59.1812C31.4185 59.1812 31.3145 59.2061 31.2295 59.2559C31.1445 59.3057 31.0771 59.3833 31.0273 59.4888C30.9775 59.5942 30.9409 59.7319 30.9175 59.9019C30.894 60.0688 30.8823 60.2695 30.8823 60.5039V60.895C30.8823 61.1147 30.9014 61.2993 30.9395 61.4487C30.9775 61.5952 31.0332 61.7153 31.1064 61.8091C31.1826 61.8999 31.2749 61.9658 31.3833 62.0068C31.4917 62.0449 31.6177 62.064 31.7612 62.064C31.978 62.064 32.1729 62.0259 32.3457 61.9497C32.5215 61.8706 32.6709 61.7637 32.7939 61.6289L33.2861 62.376C33.2012 62.4873 33.084 62.5986 32.9346 62.71C32.7852 62.8213 32.6064 62.9121 32.3984 62.9824C32.1904 63.0527 31.9502 63.0879 31.6777 63.0879ZM35.2988 59.3042V63H34.0684V58.2451H35.2285L35.2988 59.3042ZM36.4194 58.21L36.4019 59.436C36.3462 59.4243 36.2788 59.4155 36.1997 59.4097C36.1235 59.4038 36.0562 59.4009 35.9976 59.4009C35.8599 59.4009 35.7427 59.4229 35.646 59.4668C35.5493 59.5078 35.4688 59.5708 35.4043 59.6558C35.3428 59.7378 35.2959 59.8403 35.2637 59.9634C35.2314 60.0864 35.2124 60.2256 35.2065 60.3809L34.9736 60.293C34.9736 59.9824 34.9971 59.6982 35.0439 59.4404C35.0938 59.1797 35.167 58.9541 35.2637 58.7637C35.3604 58.5703 35.4761 58.4209 35.6108 58.3154C35.7485 58.21 35.9038 58.1572 36.0767 58.1572C36.1353 58.1572 36.1968 58.1631 36.2612 58.1748C36.3286 58.1836 36.3813 58.1953 36.4194 58.21ZM38.5288 62.0508L39.2935 58.2451H40.5767L39.2715 63H38.5024L38.5288 62.0508ZM38.0762 58.2451L38.854 62.0552L38.8672 63H38.0938L36.7886 58.2451H38.0762ZM43.0244 63.0879C42.6992 63.0879 42.4106 63.0381 42.1587 62.9385C41.9097 62.8389 41.6987 62.6953 41.5259 62.5078C41.353 62.3174 41.2212 62.0874 41.1304 61.8179C41.0396 61.5483 40.9941 61.2407 40.9941 60.895V60.5039C40.9941 60.1172 41.0381 59.7788 41.126 59.4888C41.2139 59.1958 41.3384 58.9497 41.4995 58.7505C41.6606 58.5513 41.8584 58.4033 42.0928 58.3066C42.3301 58.207 42.5981 58.1572 42.897 58.1572C43.1958 58.1572 43.458 58.207 43.6836 58.3066C43.9121 58.4033 44.1011 58.5498 44.2505 58.7461C44.3999 58.9395 44.5127 59.1797 44.5889 59.4668C44.665 59.7539 44.7031 60.0879 44.7031 60.4688V61.0312H41.5171V60.1655H43.4946V60.0557C43.4946 59.8623 43.4741 59.7012 43.4331 59.5723C43.3921 59.4404 43.3276 59.3423 43.2397 59.2778C43.1519 59.2134 43.0347 59.1812 42.8882 59.1812C42.7651 59.1812 42.6611 59.2061 42.5762 59.2559C42.4912 59.3057 42.4238 59.3833 42.374 59.4888C42.3242 59.5942 42.2876 59.7319 42.2642 59.9019C42.2407 60.0688 42.229 60.2695 42.229 60.5039V60.895C42.229 61.1147 42.248 61.2993 42.2861 61.4487C42.3242 61.5952 42.3799 61.7153 42.4531 61.8091C42.5293 61.8999 42.6216 61.9658 42.73 62.0068C42.8384 62.0449 42.9644 62.064 43.1079 62.064C43.3247 62.064 43.5195 62.0259 43.6924 61.9497C43.8682 61.8706 44.0176 61.7637 44.1406 61.6289L44.6328 62.376C44.5479 62.4873 44.4307 62.5986 44.2812 62.71C44.1318 62.8213 43.9531 62.9121 43.7451 62.9824C43.5371 63.0527 43.2969 63.0879 43.0244 63.0879ZM46.6455 59.3042V63H45.415V58.2451H46.5752L46.6455 59.3042ZM47.7661 58.21L47.7485 59.436C47.6929 59.4243 47.6255 59.4155 47.5464 59.4097C47.4702 59.4038 47.4028 59.4009 47.3442 59.4009C47.2065 59.4009 47.0894 59.4229 46.9927 59.4668C46.896 59.5078 46.8154 59.5708 46.751 59.6558C46.6895 59.7378 46.6426 59.8403 46.6104 59.9634C46.5781 60.0864 46.5591 60.2256 46.5532 60.3809L46.3203 60.293C46.3203 59.9824 46.3438 59.6982 46.3906 59.4404C46.4404 59.1797 46.5137 58.9541 46.6104 58.7637C46.707 58.5703 46.8228 58.4209 46.9575 58.3154C47.0952 58.21 47.2505 58.1572 47.4233 58.1572C47.4819 58.1572 47.5435 58.1631 47.6079 58.1748C47.6753 58.1836 47.728 58.1953 47.7661 58.21Z" fill="white"/>
<path d="M12.1201 21.7578L13.5293 25.9219L14.9258 21.7578H16.9507L14.4624 27.6421V31H12.5898V27.6421L10.1016 21.7578H12.1201ZM20.3403 29.4194V26.2456C20.3403 26.0382 20.3149 25.8732 20.2642 25.7505C20.2176 25.6278 20.1457 25.5389 20.0483 25.4839C19.9552 25.4246 19.841 25.395 19.7056 25.395C19.5532 25.395 19.4263 25.4268 19.3247 25.4902C19.2231 25.5537 19.147 25.6447 19.0962 25.7632C19.0496 25.8817 19.0264 26.0234 19.0264 26.1885H17.2427C17.2427 25.8923 17.2998 25.613 17.4141 25.3506C17.5283 25.084 17.6955 24.8512 17.9155 24.6523C18.1398 24.4492 18.4064 24.2905 18.7153 24.1763C19.0243 24.062 19.3713 24.0049 19.7563 24.0049C20.2134 24.0049 20.6196 24.0832 20.9751 24.2397C21.3306 24.3921 21.612 24.6354 21.8193 24.9697C22.0267 25.304 22.1304 25.7378 22.1304 26.271V29.3306C22.1304 29.7157 22.1494 30.0288 22.1875 30.27C22.2298 30.5112 22.2912 30.7186 22.3716 30.8921V31H20.5815C20.5011 30.8096 20.4398 30.5726 20.3975 30.2891C20.3594 30.0013 20.3403 29.7114 20.3403 29.4194ZM20.5562 26.8042L20.5625 27.8706H19.9087C19.7394 27.8706 19.5913 27.8981 19.4644 27.9531C19.3416 28.0081 19.238 28.0864 19.1533 28.188C19.0687 28.2853 19.0052 28.3996 18.9629 28.5308C18.9248 28.6619 18.9058 28.8016 18.9058 28.9497C18.9058 29.1147 18.929 29.2544 18.9756 29.3687C19.0221 29.4829 19.092 29.5697 19.1851 29.6289C19.2782 29.6882 19.3882 29.7178 19.5151 29.7178C19.7098 29.7178 19.8791 29.6776 20.0229 29.5972C20.1668 29.5168 20.2726 29.4194 20.3403 29.3052C20.4123 29.1909 20.4355 29.0851 20.4102 28.9878L20.8164 29.6797C20.7656 29.8363 20.6958 29.9992 20.6069 30.1685C20.5223 30.3377 20.4144 30.4943 20.2832 30.6382C20.152 30.7821 19.9891 30.9006 19.7944 30.9937C19.604 31.0825 19.3776 31.127 19.1152 31.127C18.7471 31.127 18.4106 31.0423 18.106 30.873C17.8013 30.7038 17.5601 30.4668 17.3823 30.1621C17.2088 29.8574 17.1221 29.4956 17.1221 29.0767C17.1221 28.7297 17.1771 28.4165 17.2871 28.1372C17.4014 27.8537 17.5706 27.6146 17.7949 27.4199C18.0192 27.221 18.3027 27.0687 18.6455 26.9629C18.9883 26.8571 19.3903 26.8042 19.8516 26.8042H20.5562ZM25.1899 25.5981V31H23.4062V24.1318H25.0693L25.1899 25.5981ZM24.9233 27.3311L24.4473 27.3438C24.4388 26.8275 24.4875 26.3641 24.5933 25.9536C24.7033 25.5431 24.8577 25.194 25.0566 24.9062C25.2598 24.6143 25.501 24.3921 25.7803 24.2397C26.0596 24.0832 26.3748 24.0049 26.7261 24.0049C26.9927 24.0049 27.236 24.0514 27.4561 24.1445C27.6803 24.2376 27.8729 24.3857 28.0337 24.5889C28.1945 24.792 28.3193 25.0607 28.4082 25.395C28.4971 25.7293 28.5415 26.1419 28.5415 26.6328V31H26.7578V26.6201C26.7578 26.3239 26.7282 26.0954 26.6689 25.9346C26.6097 25.7695 26.5208 25.6553 26.4023 25.5918C26.2881 25.5241 26.14 25.4902 25.958 25.4902C25.7887 25.4902 25.6385 25.5368 25.5073 25.6299C25.3761 25.723 25.2661 25.8542 25.1772 26.0234C25.0926 26.1885 25.027 26.3831 24.9805 26.6074C24.9382 26.8317 24.9191 27.0729 24.9233 27.3311ZM33.1689 29.4829V21.25H34.9526V31L33.3403 31.0063L33.1689 29.4829ZM29.6079 27.8071V27.3501C29.6079 26.7915 29.6545 26.3027 29.7476 25.8838C29.8449 25.4648 29.9888 25.1157 30.1792 24.8364C30.3696 24.5571 30.6024 24.3498 30.8774 24.2144C31.1567 24.0747 31.4762 24.0049 31.8359 24.0049C32.1618 24.0049 32.4474 24.0874 32.6929 24.2524C32.9425 24.4132 33.1541 24.6396 33.3276 24.9316C33.5011 25.2236 33.6408 25.5685 33.7466 25.9663C33.8524 26.3641 33.9264 26.8 33.9688 27.2739V27.9341C33.918 28.3826 33.8397 28.8016 33.7339 29.1909C33.6323 29.5802 33.4927 29.9188 33.3149 30.2065C33.1414 30.4943 32.932 30.7207 32.6865 30.8857C32.4411 31.0465 32.1554 31.127 31.8296 31.127C31.4699 31.127 31.1504 31.055 30.8711 30.9111C30.596 30.7673 30.3633 30.5557 30.1729 30.2764C29.9867 29.9928 29.8449 29.6458 29.7476 29.2354C29.6545 28.8206 29.6079 28.3446 29.6079 27.8071ZM31.3853 27.3501V27.8071C31.3853 28.1287 31.4001 28.4059 31.4297 28.6387C31.4635 28.8672 31.5164 29.0555 31.5884 29.2036C31.6646 29.3475 31.764 29.4554 31.8867 29.5273C32.0094 29.5951 32.1618 29.6289 32.3438 29.6289C32.5807 29.6289 32.7733 29.5697 32.9214 29.4512C33.0695 29.3285 33.1795 29.1613 33.2515 28.9497C33.3276 28.7339 33.37 28.4863 33.3784 28.207V27.0073C33.37 26.7746 33.3424 26.5651 33.2959 26.3789C33.2493 26.1927 33.1838 26.034 33.0991 25.9028C33.0145 25.7716 32.9087 25.6701 32.7817 25.5981C32.659 25.5262 32.5151 25.4902 32.3501 25.4902C32.1724 25.4902 32.02 25.5262 31.8931 25.5981C31.7703 25.6701 31.673 25.7822 31.6011 25.9346C31.5291 26.0827 31.4741 26.2752 31.436 26.5122C31.4022 26.745 31.3853 27.0243 31.3853 27.3501ZM39.0596 31.127C38.5898 31.127 38.173 31.055 37.8091 30.9111C37.4494 30.7673 37.1447 30.5599 36.895 30.2891C36.6453 30.014 36.4549 29.6818 36.3237 29.2925C36.1925 28.9032 36.127 28.4588 36.127 27.9595V27.3945C36.127 26.8359 36.1904 26.3472 36.3174 25.9282C36.4443 25.505 36.6242 25.1496 36.8569 24.8618C37.0897 24.5741 37.3753 24.3604 37.7139 24.2207C38.0566 24.0768 38.4438 24.0049 38.8755 24.0049C39.3071 24.0049 39.6859 24.0768 40.0117 24.2207C40.3418 24.3604 40.6147 24.5719 40.8306 24.8555C41.0464 25.1348 41.2093 25.4818 41.3193 25.8965C41.4294 26.3112 41.4844 26.7936 41.4844 27.3438V28.1562H36.8823V26.9058H39.7388V26.7471C39.7388 26.4678 39.7091 26.235 39.6499 26.0488C39.5907 25.8584 39.4976 25.7166 39.3706 25.6235C39.2437 25.5304 39.0744 25.4839 38.8628 25.4839C38.6851 25.4839 38.5348 25.5199 38.4121 25.5918C38.2894 25.6637 38.1921 25.7759 38.1201 25.9282C38.0482 26.0806 37.9953 26.2795 37.9614 26.5249C37.9276 26.7661 37.9106 27.056 37.9106 27.3945V27.9595C37.9106 28.2769 37.9382 28.5435 37.9932 28.7593C38.0482 28.9709 38.1286 29.1444 38.2344 29.2798C38.3444 29.411 38.4777 29.5062 38.6343 29.5654C38.7909 29.6204 38.9728 29.6479 39.1802 29.6479C39.4933 29.6479 39.7747 29.5929 40.0244 29.4829C40.2783 29.3687 40.4941 29.2142 40.6719 29.0195L41.3828 30.0986C41.2601 30.2594 41.0908 30.4202 40.875 30.5811C40.6592 30.7419 40.401 30.873 40.1006 30.9746C39.8001 31.0762 39.4531 31.127 39.0596 31.127ZM44.0298 24.1318L44.8804 25.8774L45.6104 24.1318H47.4956L45.7373 27.4897L47.5654 31H45.6675L44.7979 29.1909L43.9663 31H42.062L43.8076 27.5088L42.1255 24.1318H44.0298Z" fill="#F7941D"/>
<path d="M11.5127 39.5H12.875V45.7744L12.7773 47H11.5127V39.5ZM15.6191 44.1826V44.5293C15.6191 44.959 15.585 45.3333 15.5166 45.6523C15.4515 45.9714 15.349 46.2383 15.209 46.4531C15.0723 46.668 14.8965 46.8291 14.6816 46.9365C14.4668 47.0439 14.2129 47.0977 13.9199 47.0977C13.6562 47.0977 13.43 47.0358 13.2412 46.9121C13.0524 46.7852 12.8929 46.611 12.7627 46.3896C12.6357 46.165 12.5316 45.903 12.4502 45.6035C12.3721 45.3008 12.3151 44.9704 12.2793 44.6123V44.0996C12.3118 43.748 12.3672 43.4209 12.4453 43.1182C12.5267 42.8154 12.6309 42.5534 12.7578 42.332C12.8848 42.1074 13.0426 41.9333 13.2314 41.8096C13.4235 41.6826 13.6497 41.6191 13.9102 41.6191C14.2096 41.6191 14.4668 41.6745 14.6816 41.7852C14.8965 41.8926 15.0723 42.0537 15.209 42.2686C15.349 42.4834 15.4515 42.752 15.5166 43.0742C15.585 43.3932 15.6191 43.7627 15.6191 44.1826ZM14.2568 44.5293V44.1826C14.2568 43.9385 14.2471 43.7285 14.2275 43.5527C14.208 43.377 14.1722 43.2305 14.1201 43.1133C14.068 42.9961 13.9932 42.9082 13.8955 42.8496C13.8011 42.791 13.6758 42.7617 13.5195 42.7617C13.3796 42.7617 13.2624 42.7894 13.168 42.8447C13.0736 42.8968 12.9922 42.9749 12.9238 43.0791C12.8587 43.18 12.8115 43.3005 12.7822 43.4404C12.7529 43.5771 12.735 43.7285 12.7285 43.8945V44.8174C12.7318 45.042 12.7594 45.2406 12.8115 45.4131C12.8636 45.5856 12.9466 45.7191 13.0605 45.8135C13.1777 45.9079 13.334 45.9551 13.5293 45.9551C13.6823 45.9551 13.806 45.929 13.9004 45.877C13.9948 45.8249 14.068 45.7419 14.1201 45.6279C14.1755 45.514 14.2113 45.3675 14.2275 45.1885C14.2471 45.0062 14.2568 44.7865 14.2568 44.5293ZM20.6045 45.8623V47H16.415V46.0283L18.3389 43.582C18.5244 43.3281 18.6693 43.1035 18.7734 42.9082C18.8776 42.7129 18.9525 42.5387 18.998 42.3857C19.0436 42.2295 19.0664 42.0814 19.0664 41.9414C19.0664 41.7331 19.042 41.554 18.9932 41.4043C18.9443 41.2513 18.8711 41.1341 18.7734 41.0527C18.679 40.9681 18.5618 40.9258 18.4219 40.9258C18.2526 40.9258 18.1126 40.9779 18.002 41.082C17.8913 41.1862 17.8083 41.3294 17.7529 41.5117C17.7008 41.6908 17.6748 41.8942 17.6748 42.1221H16.3027C16.3027 41.6989 16.389 41.3099 16.5615 40.9551C16.7373 40.597 16.9831 40.3138 17.2988 40.1055C17.6178 39.8939 18.0003 39.7881 18.4463 39.7881C18.8792 39.7881 19.2438 39.8695 19.54 40.0322C19.8363 40.195 20.0592 40.4277 20.209 40.7305C20.362 41.0299 20.4385 41.3896 20.4385 41.8096C20.4385 42.0439 20.4076 42.2734 20.3457 42.498C20.2839 42.7194 20.196 42.9408 20.082 43.1621C19.9681 43.3802 19.8265 43.6032 19.6572 43.8311C19.4912 44.0589 19.3057 44.2949 19.1006 44.5391L18.1729 45.8623H20.6045ZM21.5225 39.5H22.8848V45.7744L22.7871 47H21.5225V39.5ZM25.6289 44.1826V44.5293C25.6289 44.959 25.5947 45.3333 25.5264 45.6523C25.4613 45.9714 25.3587 46.2383 25.2188 46.4531C25.082 46.668 24.9062 46.8291 24.6914 46.9365C24.4766 47.0439 24.2227 47.0977 23.9297 47.0977C23.666 47.0977 23.4398 47.0358 23.251 46.9121C23.0622 46.7852 22.9027 46.611 22.7725 46.3896C22.6455 46.165 22.5413 45.903 22.46 45.6035C22.3818 45.3008 22.3249 44.9704 22.2891 44.6123V44.0996C22.3216 43.748 22.377 43.4209 22.4551 43.1182C22.5365 42.8154 22.6406 42.5534 22.7676 42.332C22.8945 42.1074 23.0524 41.9333 23.2412 41.8096C23.4333 41.6826 23.6595 41.6191 23.9199 41.6191C24.2194 41.6191 24.4766 41.6745 24.6914 41.7852C24.9062 41.8926 25.082 42.0537 25.2188 42.2686C25.3587 42.4834 25.4613 42.752 25.5264 43.0742C25.5947 43.3932 25.6289 43.7627 25.6289 44.1826ZM24.2666 44.5293V44.1826C24.2666 43.9385 24.2568 43.7285 24.2373 43.5527C24.2178 43.377 24.182 43.2305 24.1299 43.1133C24.0778 42.9961 24.0029 42.9082 23.9053 42.8496C23.8109 42.791 23.6855 42.7617 23.5293 42.7617C23.3893 42.7617 23.2721 42.7894 23.1777 42.8447C23.0833 42.8968 23.002 42.9749 22.9336 43.0791C22.8685 43.18 22.8213 43.3005 22.792 43.4404C22.7627 43.5771 22.7448 43.7285 22.7383 43.8945V44.8174C22.7415 45.042 22.7692 45.2406 22.8213 45.4131C22.8734 45.5856 22.9564 45.7191 23.0703 45.8135C23.1875 45.9079 23.3438 45.9551 23.5391 45.9551C23.6921 45.9551 23.8158 45.929 23.9102 45.877C24.0046 45.8249 24.0778 45.7419 24.1299 45.6279C24.1852 45.514 24.221 45.3675 24.2373 45.1885C24.2568 45.0062 24.2666 44.7865 24.2666 44.5293ZM28.9297 43.3818V44.5195H26.5518V43.3818H28.9297ZM32.4111 45.7842V43.3428C32.4111 43.1833 32.3916 43.0563 32.3525 42.9619C32.3167 42.8675 32.2614 42.7992 32.1865 42.7568C32.1149 42.7113 32.027 42.6885 31.9229 42.6885C31.8057 42.6885 31.708 42.7129 31.6299 42.7617C31.5518 42.8105 31.4932 42.8805 31.4541 42.9717C31.4183 43.0628 31.4004 43.1719 31.4004 43.2988H30.0283C30.0283 43.071 30.0723 42.8561 30.1602 42.6543C30.248 42.4492 30.3766 42.2702 30.5459 42.1172C30.7184 41.9609 30.9235 41.8389 31.1611 41.751C31.3988 41.6631 31.6657 41.6191 31.9619 41.6191C32.3135 41.6191 32.626 41.6794 32.8994 41.7998C33.1729 41.917 33.3893 42.1042 33.5488 42.3613C33.7083 42.6185 33.7881 42.9521 33.7881 43.3623V45.7158C33.7881 46.012 33.8027 46.2529 33.832 46.4385C33.8646 46.624 33.9118 46.7835 33.9736 46.917V47H32.5967C32.5348 46.8535 32.4876 46.6712 32.4551 46.4531C32.4258 46.2318 32.4111 46.0088 32.4111 45.7842ZM32.5771 43.7725L32.582 44.5928H32.0791C31.9489 44.5928 31.835 44.6139 31.7373 44.6562C31.6429 44.6986 31.5632 44.7588 31.498 44.8369C31.4329 44.9118 31.3841 44.9997 31.3516 45.1006C31.3223 45.2015 31.3076 45.3089 31.3076 45.4229C31.3076 45.5498 31.3255 45.6572 31.3613 45.7451C31.3971 45.833 31.4508 45.8997 31.5225 45.9453C31.5941 45.9909 31.6787 46.0137 31.7764 46.0137C31.9261 46.0137 32.0563 45.9827 32.167 45.9209C32.2777 45.859 32.359 45.7842 32.4111 45.6963C32.4665 45.6084 32.4844 45.527 32.4648 45.4521L32.7773 45.9844C32.7383 46.1048 32.6846 46.2301 32.6162 46.3604C32.5511 46.4906 32.4681 46.611 32.3672 46.7217C32.2663 46.8324 32.141 46.9235 31.9912 46.9951C31.8447 47.0635 31.6706 47.0977 31.4688 47.0977C31.1855 47.0977 30.9268 47.0326 30.6924 46.9023C30.458 46.7721 30.2725 46.5898 30.1357 46.3555C30.0023 46.1211 29.9355 45.8428 29.9355 45.5205C29.9355 45.2536 29.9779 45.0127 30.0625 44.7979C30.1504 44.5798 30.2806 44.3958 30.4531 44.2461C30.6257 44.0931 30.8438 43.9759 31.1074 43.8945C31.3711 43.8132 31.6803 43.7725 32.0352 43.7725H32.5771ZM37.5771 41.7168H38.8174V47C38.8174 47.4818 38.7246 47.8757 38.5391 48.1816C38.3568 48.4909 38.1012 48.7171 37.7725 48.8604C37.4469 49.0068 37.0661 49.0801 36.6299 49.0801C36.4639 49.0801 36.2767 49.0573 36.0684 49.0117C35.8633 48.9661 35.6647 48.8962 35.4727 48.8018C35.2806 48.7106 35.1227 48.5999 34.999 48.4697L35.4629 47.5225C35.5898 47.6494 35.7559 47.7568 35.9609 47.8447C36.166 47.9359 36.3678 47.9814 36.5664 47.9814C36.7585 47.9814 36.918 47.9505 37.0449 47.8887C37.1751 47.8301 37.2728 47.7292 37.3379 47.5859C37.4062 47.4427 37.4404 47.2507 37.4404 47.0098V42.9424L37.5771 41.7168ZM34.6279 44.5439V44.1924C34.6279 43.7627 34.6686 43.3867 34.75 43.0645C34.8314 42.7422 34.9486 42.4736 35.1016 42.2588C35.2546 42.0439 35.4417 41.8844 35.6631 41.7803C35.8877 41.6729 36.1383 41.6191 36.415 41.6191C36.7048 41.6191 36.9473 41.6826 37.1426 41.8096C37.3379 41.9333 37.4958 42.1074 37.6162 42.332C37.7399 42.5566 37.8343 42.8219 37.8994 43.1279C37.9678 43.4339 38.0199 43.7692 38.0557 44.1338V44.6416C38.0199 44.9867 37.9613 45.3089 37.8799 45.6084C37.8018 45.9079 37.6976 46.1683 37.5674 46.3896C37.4372 46.611 37.2777 46.7852 37.0889 46.9121C36.9001 47.0358 36.6722 47.0977 36.4053 47.0977C36.1318 47.0977 35.8844 47.0423 35.6631 46.9316C35.445 46.821 35.2578 46.6582 35.1016 46.4434C34.9486 46.2253 34.8314 45.9583 34.75 45.6426C34.6686 45.3236 34.6279 44.9574 34.6279 44.5439ZM36 44.1924V44.5439C36 44.7913 36.0146 45.0046 36.0439 45.1836C36.0765 45.3594 36.1253 45.5042 36.1904 45.6182C36.2555 45.7288 36.3385 45.8118 36.4395 45.8672C36.5436 45.9193 36.6657 45.9453 36.8057 45.9453C37.0042 45.9453 37.1621 45.8997 37.2793 45.8086C37.3997 45.7142 37.4876 45.5856 37.543 45.4229C37.6016 45.2568 37.6341 45.0664 37.6406 44.8516V43.9287C37.6374 43.7497 37.6162 43.5885 37.5771 43.4453C37.5413 43.3021 37.4909 43.18 37.4258 43.0791C37.3607 42.9782 37.276 42.9001 37.1719 42.8447C37.071 42.7894 36.9521 42.7617 36.8154 42.7617C36.6755 42.7617 36.555 42.7894 36.4541 42.8447C36.3532 42.9001 36.2686 42.9863 36.2002 43.1035C36.1351 43.2174 36.0846 43.3656 36.0488 43.5479C36.0163 43.7269 36 43.9417 36 44.1924ZM41.2051 42.8936V47H39.8379V41.7168H41.127L41.2051 42.8936ZM42.4502 41.6777L42.4307 43.04C42.3688 43.027 42.2939 43.0173 42.2061 43.0107C42.1214 43.0042 42.0465 43.001 41.9814 43.001C41.8285 43.001 41.6982 43.0254 41.5908 43.0742C41.4834 43.1198 41.3939 43.1898 41.3223 43.2842C41.2539 43.3753 41.2018 43.4893 41.166 43.626C41.1302 43.7627 41.109 43.9173 41.1025 44.0898L40.8438 43.9922C40.8438 43.6471 40.8698 43.3314 40.9219 43.0449C40.9772 42.7552 41.0586 42.5046 41.166 42.293C41.2734 42.0781 41.402 41.9121 41.5518 41.7949C41.7048 41.6777 41.8773 41.6191 42.0693 41.6191C42.1344 41.6191 42.2028 41.6257 42.2744 41.6387C42.3493 41.6484 42.4079 41.6615 42.4502 41.6777ZM42.8164 44.5391V44.1826C42.8164 43.7692 42.8652 43.403 42.9629 43.084C43.0638 42.765 43.207 42.498 43.3926 42.2832C43.5781 42.0651 43.8011 41.9007 44.0615 41.79C44.3252 41.6761 44.6198 41.6191 44.9453 41.6191C45.2741 41.6191 45.5687 41.6761 45.8291 41.79C46.0928 41.9007 46.3174 42.0651 46.5029 42.2832C46.6917 42.498 46.8366 42.765 46.9375 43.084C47.0384 43.403 47.0889 43.7692 47.0889 44.1826V44.5391C47.0889 44.9492 47.0384 45.3138 46.9375 45.6328C46.8366 45.9518 46.6917 46.2204 46.5029 46.4385C46.3174 46.6566 46.0944 46.821 45.834 46.9316C45.5736 47.0423 45.2806 47.0977 44.9551 47.0977C44.6296 47.0977 44.335 47.0423 44.0713 46.9316C43.8109 46.821 43.5863 46.6566 43.3975 46.4385C43.2087 46.2204 43.0638 45.9518 42.9629 45.6328C42.8652 45.3138 42.8164 44.9492 42.8164 44.5391ZM44.1836 44.1826V44.5391C44.1836 44.7832 44.1999 44.9948 44.2324 45.1738C44.2682 45.3529 44.3187 45.501 44.3838 45.6182C44.4521 45.7354 44.5335 45.8216 44.6279 45.877C44.7223 45.9323 44.8314 45.96 44.9551 45.96C45.0788 45.96 45.1895 45.9323 45.2871 45.877C45.3848 45.8216 45.4645 45.7354 45.5264 45.6182C45.5915 45.501 45.6387 45.3529 45.668 45.1738C45.7005 44.9948 45.7168 44.7832 45.7168 44.5391V44.1826C45.7168 43.945 45.6989 43.7367 45.6631 43.5576C45.6273 43.3753 45.5768 43.2272 45.5117 43.1133C45.4466 42.9961 45.3652 42.9082 45.2676 42.8496C45.1732 42.7878 45.0658 42.7568 44.9453 42.7568C44.8249 42.7568 44.7174 42.7878 44.623 42.8496C44.5319 42.9082 44.4521 42.9961 44.3838 43.1133C44.3187 43.2272 44.2682 43.3753 44.2324 43.5576C44.1999 43.7367 44.1836 43.945 44.1836 44.1826Z" fill="white"/>
<path d="M3.15 27.3196L0.04 28.9596L0 25.6396L3.15 27.3196Z" fill="#F7941D"/>
</g>
<defs>
<clipPath id="clip0_7941_14461">
<rect width="48" height="66" fill="white"/>
</clipPath>
</defs>
</svg>
