<svg xmlns="http://www.w3.org/2000/svg" width="298.46" height="46.34" viewBox="0 0 298.46 46.34"><defs><style>.a{fill:#E53935;}</style></defs><title>logo2_bright</title><path class="a" d="M12.06,43.35A22.3,22.3,0,0,1,0,23.17,22.3,22.3,0,0,1,12.06,3a26.72,26.72,0,0,1,12.7-3,26.72,26.72,0,0,1,12.7,3A22.3,22.3,0,0,1,49.52,23.17,22.3,22.3,0,0,1,37.46,43.35a26.72,26.72,0,0,1-12.7,3A26.72,26.72,0,0,1,12.06,43.35Zm18.81-9a11.48,11.48,0,0,0,4.33-4.49,13.6,13.6,0,0,0,1.59-6.65,13.6,13.6,0,0,0-1.59-6.65A11.48,11.48,0,0,0,30.87,12a11.92,11.92,0,0,0-6.11-1.59A11.92,11.92,0,0,0,18.65,12a11.41,11.41,0,0,0-4.33,4.49,13.6,13.6,0,0,0-1.59,6.65,13.6,13.6,0,0,0,1.59,6.65,11.41,11.41,0,0,0,4.33,4.49,11.92,11.92,0,0,0,6.11,1.59A11.92,11.92,0,0,0,30.87,34.31Z"/><path class="a" d="M91.21,11v34.5h-12V20.56H67.6V45.45h-12V11Z"/><path class="a" d="M130.23,20.56H119.15V45.45h-12V20.56H96V11h34.25Z"/><path class="a" d="M174.4.89V45.45H162V10.88H149.2l-.26,7.26a94,94,0,0,1-1.56,15.53,19.32,19.32,0,0,1-4.23,9.26q-3,3.28-8.47,3.28a24.71,24.71,0,0,1-5.72-.76l.7-10.32a7.41,7.41,0,0,0,1.71.2,4.33,4.33,0,0,0,3.82-2,13.74,13.74,0,0,0,1.91-5.5,76.37,76.37,0,0,0,.77-9.2L138.5.89Z"/><path class="a" d="M183.25,11h12V29L209.73,11h11.14v34.5h-12.1V27.31L194.45,45.45h-11.2Z"/><path class="a" d="M236.08,43.73a17,17,0,0,1-9.55-15.6,16.78,16.78,0,0,1,9.55-15.5,22.68,22.68,0,0,1,10.25-2.25,19.56,19.56,0,0,1,10.12,2.51,14,14,0,0,1,6,7l-9.35,4.77c-1.57-3.09-3.87-4.64-6.88-4.64a7.25,7.25,0,0,0-5.38,2.16,8.16,8.16,0,0,0-2.13,6,8.36,8.36,0,0,0,2.13,6.08,7.17,7.17,0,0,0,5.38,2.2c3,0,5.31-1.55,6.88-4.65l9.35,4.78a13.88,13.88,0,0,1-6,7A19.56,19.56,0,0,1,246.33,46,22.44,22.44,0,0,1,236.08,43.73Z"/><path class="a" d="M298.46,20.56H287.38V45.45h-12V20.56H264.21V11h34.25Z"/></svg>