<svg width="56" height="64" viewBox="0 0 56 64" fill="none" xmlns="http://www.w3.org/2000/svg">
<g clip-path="url(#clip0_8258_14344)">
<path d="M24.9705 2.06C27.1405 1.37 29.4405 1 31.8405 1C44.3705 1 54.5205 11.16 54.5205 23.68C54.5205 36.2 44.3605 46.36 31.8405 46.36C21.7205 46.36 13.1505 39.74 10.2305 30.59" stroke="white" stroke-width="2" stroke-linecap="round" stroke-linejoin="round"/>
<path d="M20.5607 48.45L16.4707 60.45L23.3107 57.41L26.2507 62.27L30.2007 50.31" stroke="white" stroke-width="2" stroke-linecap="round" stroke-linejoin="round"/>
<path d="M43.1107 48.45L47.2007 60.45L40.3607 57.41L37.4207 62.27L33.4707 50.31" stroke="white" stroke-width="2" stroke-linecap="round" stroke-linejoin="round"/>
<path d="M20.8298 29.6199C20.0198 29.6199 19.2298 29.4999 18.4598 29.2699C17.6898 29.0299 17.0398 28.6899 16.5098 28.2399L17.6198 26.4899C17.8598 26.7299 18.1598 26.9399 18.5098 27.1099C18.8598 27.2799 19.2398 27.4199 19.6398 27.5099C20.0398 27.5999 20.4398 27.6499 20.8298 27.6499C21.4298 27.6499 21.9098 27.5499 22.2898 27.3399C22.6698 27.1299 22.8498 26.8199 22.8498 26.4199C22.8498 26.0899 22.7198 25.8199 22.4598 25.5999C22.1998 25.3799 21.7098 25.1699 20.9898 24.9699L19.9798 24.6899C18.8698 24.3799 18.0698 23.9599 17.5898 23.4299C17.0998 22.8999 16.8598 22.2599 16.8598 21.4999C16.8598 21.0099 16.9598 20.5599 17.1698 20.1499C17.3798 19.7399 17.6598 19.3799 18.0298 19.0799C18.3998 18.7799 18.8398 18.5499 19.3498 18.3799C19.8598 18.2099 20.4098 18.1299 20.9998 18.1299C21.7998 18.1299 22.5498 18.2499 23.2398 18.4799C23.9298 18.7099 24.4898 19.0299 24.9198 19.4399L23.7698 21.1299C23.5598 20.9199 23.3098 20.7499 23.0098 20.5899C22.7098 20.4299 22.3898 20.3099 22.0498 20.2299C21.6998 20.1399 21.3498 20.0999 20.9998 20.0999C20.6198 20.0999 20.2898 20.1499 19.9998 20.2499C19.7098 20.3499 19.4898 20.4999 19.3298 20.6899C19.1698 20.8799 19.0898 21.1099 19.0898 21.3799C19.0898 21.5899 19.1498 21.7599 19.2598 21.8999C19.3698 22.0399 19.5598 22.1799 19.8398 22.3099C20.1098 22.4399 20.4798 22.5699 20.9498 22.6999L21.9898 23.0099C23.0798 23.3299 23.8798 23.7399 24.3698 24.2299C24.8598 24.7199 25.1098 25.3599 25.1098 26.1499C25.1098 26.8299 24.9398 27.4299 24.5898 27.9599C24.2398 28.4899 23.7498 28.8899 23.1098 29.1799C22.4698 29.4699 21.6998 29.6199 20.8198 29.6199H20.8298Z" fill="#F7941D"/>
<path d="M27.0693 29.3801V18.3501H34.6093V20.3801H29.3993V22.7401H33.8093V24.6201H29.3993V27.3201H34.6693V29.3801H27.0693Z" fill="#F7941D"/>
<path d="M42.1293 29.6199C41.2893 29.6199 40.5093 29.4699 39.7993 29.1799C39.0893 28.8899 38.4593 28.4799 37.9393 27.9599C37.4093 27.4399 36.9993 26.8299 36.7093 26.1299C36.4193 25.4299 36.2793 24.6799 36.2793 23.8599C36.2793 23.0399 36.4193 22.2799 36.7093 21.5799C36.9993 20.8799 37.4093 20.2699 37.9393 19.7499C38.4693 19.2299 39.0893 18.8299 39.7993 18.5399C40.5093 18.2499 41.2893 18.1099 42.1293 18.1099C42.9693 18.1099 43.7493 18.2599 44.4593 18.5499C45.1693 18.8399 45.7893 19.2499 46.3193 19.7799C46.8493 20.3099 47.2593 20.9199 47.5493 21.6099C47.8393 22.2999 47.9893 23.0599 47.9893 23.8599C47.9893 24.6599 47.8393 25.4299 47.5493 26.1299C47.2593 26.8299 46.8393 27.4399 46.3193 27.9599C45.7893 28.4799 45.1693 28.8899 44.4593 29.1799C43.7493 29.4699 42.9693 29.6199 42.1293 29.6199ZM42.1293 27.4299C42.6193 27.4299 43.0693 27.3499 43.4893 27.1799C43.8993 27.0099 44.2693 26.7699 44.5793 26.4599C44.8893 26.1499 45.1293 25.7699 45.2993 25.3399C45.4693 24.9099 45.5593 24.4199 45.5593 23.8699C45.5593 23.1499 45.4093 22.5199 45.1093 21.9899C44.8093 21.4599 44.3993 21.0399 43.8893 20.7499C43.3693 20.4599 42.7893 20.3099 42.1393 20.3099C41.6593 20.3099 41.2093 20.3899 40.7893 20.5599C40.3693 20.7299 40.0093 20.9699 39.6993 21.2799C39.3893 21.5899 39.1493 21.9699 38.9793 22.3999C38.8093 22.8399 38.7193 23.3199 38.7193 23.8699C38.7193 24.5899 38.8693 25.2199 39.1693 25.7499C39.4693 26.2799 39.8793 26.6999 40.3893 26.9899C40.8993 27.2799 41.4793 27.4299 42.1293 27.4299Z" fill="white"/>
<path d="M8.57 26.8001C8.78 25.9801 9 25.2301 9.18 24.4701C9.48 23.2101 9.61 21.9501 9.29 20.6701C9.21 20.3401 9.08 20.3401 8.84 20.5301C7.34 21.7401 5.84 22.9401 4.35 24.1501C2.97 25.2701 1.59 26.3901 0.21 27.5101C0.18 27.5301 0.14 27.5401 0 27.5901C2.42 24.5701 4.78 21.6301 7.23 18.5801C5.99 18.3901 4.89 18.3901 3.8 18.5301C2.72 18.6701 1.65 18.9501 0.49 19.0901C0.75 18.6901 1.01 18.2801 1.27 17.8801C2.04 16.7201 2.83 15.5601 3.59 14.3901C3.76 14.1301 3.94 14.0501 4.23 14.0601C5.41 14.0901 6.59 14.0901 7.77 14.1301C8.19 14.1401 8.48 14.0001 8.77 13.7101C11.35 11.1201 13.94 8.53006 16.55 5.96006C16.81 5.70006 17.2 5.50006 17.56 5.42006C19.29 5.04006 21.03 4.71006 22.77 4.36006C22.93 4.33006 23.09 4.33006 23.32 4.31006C23.21 4.95006 23.11 5.56006 22.99 6.16006C22.72 7.54006 22.45 8.93006 22.15 10.3001C22.1 10.5201 21.95 10.7501 21.79 10.9201C19.17 13.5501 16.53 16.1801 13.89 18.7901C13.6 19.0801 13.47 19.3801 13.48 19.7901C13.48 20.9701 13.48 22.1501 13.43 23.3301C13.43 23.5301 13.3 23.7901 13.14 23.9001C11.68 24.8601 10.2 25.7901 8.72 26.7201C8.69 26.7401 8.64 26.7501 8.56 26.7901L8.57 26.8001Z" fill="#F7941D"/>
</g>
<defs>
<clipPath id="clip0_8258_14344">
<rect width="55.52" height="63.27" fill="white"/>
</clipPath>
</defs>
</svg>
